<svg width="25" height="25" fill="none" xmlns="http://www.w3.org/2000/svg"><path fill-rule="evenodd" clip-rule="evenodd" d="M2.572 7.26a.781.781 0 011.106 0l8.822 8.823 8.822-8.824a.782.782 0 111.106 1.107l-9.375 9.375a.781.781 0 01-1.106 0L2.572 8.366a.781.781 0 010-1.107z" fill="#000"/><path fill-rule="evenodd" clip-rule="evenodd" d="M2.572 7.26a.781.781 0 011.106 0l8.822 8.823 8.822-8.824a.782.782 0 111.106 1.107l-9.375 9.375a.781.781 0 01-1.106 0L2.572 8.366a.781.781 0 010-1.107z" fill="#00A3FF"/></svg>