<svg width="100" height="100" fill="none" xmlns="http://www.w3.org/2000/svg"><circle cx="50" cy="50" r="48" stroke="#000" stroke-width="4"/><circle cx="50" cy="50" r="48" stroke="#fff" stroke-width="4"/><path d="M78.134 28.608a2.496 2.496 0 010 3.488L44.192 66.584a2.39 2.39 0 01-3.433 0L23.79 49.34a2.487 2.487 0 01-.712-1.744c0-.654.256-1.281.711-1.744a2.408 2.408 0 011.717-.722c.643 0 1.26.26 1.716.722l15.255 15.505L74.7 28.608a2.391 2.391 0 013.433 0z" fill="#000"/><path d="M78.134 28.608a2.496 2.496 0 010 3.488L44.192 66.584a2.39 2.39 0 01-3.433 0L23.79 49.34a2.487 2.487 0 01-.712-1.744c0-.654.256-1.281.711-1.744a2.408 2.408 0 011.717-.722c.643 0 1.26.26 1.716.722l15.255 15.505L74.7 28.608a2.391 2.391 0 013.433 0z" fill="#fff"/></svg>