<svg width="24" height="24" fill="none" xmlns="http://www.w3.org/2000/svg"><g clip-path="url(#clip0_50_1020)"><path d="M5.481 1.992a1.017 1.017 0 00-1.522-.094L2.408 3.45c-.725.726-.992 1.754-.675 2.655a26.352 26.352 0 006.252 9.912 26.355 26.355 0 009.912 6.252c.901.317 1.929.05 2.655-.675l1.55-1.55a1.017 1.017 0 00-.094-1.523l-3.46-2.691a1.017 1.017 0 00-.87-.183l-3.285.82a2.617 2.617 0 01-2.486-.688l-3.684-3.686a2.617 2.617 0 01-.69-2.485l.822-3.285a1.017 1.017 0 00-.183-.87l-2.69-3.46zM2.826.767a2.617 2.617 0 013.918.244l2.691 3.46c.494.634.668 1.46.473 2.24l-.82 3.285a1.017 1.017 0 00.266.965l3.686 3.685a1.018 1.018 0 00.966.267l3.283-.82a2.619 2.619 0 012.241.472l3.46 2.691a2.617 2.617 0 01.244 3.917l-1.551 1.55c-1.11 1.11-2.77 1.598-4.316 1.054a27.95 27.95 0 01-10.515-6.63A27.951 27.951 0 01.222 6.633C-.32 5.088.167 3.428 1.277 2.318L2.827.767z" fill="currentColor"/></g><defs><clipPath id="clip0_50_1020"><path fill="currentColor" d="M0 0h24v24H0z"/></clipPath></defs></svg>