<svg width="24" height="21" fill="none" xmlns="http://www.w3.org/2000/svg"><path opacity=".55" fill-rule="evenodd" clip-rule="evenodd" d="M.271 7.915a.922.922 0 01.654-.28.897.897 0 01.653.28L12 18.695l10.422-10.78a.909.909 0 01.654-.28c.245 0 .48.101.653.28.174.18.271.423.271.676a.972.972 0 01-.27.676L12.653 20.72A.921.921 0 0112 21a.897.897 0 01-.653-.28L.27 9.267A.957.957 0 010 8.59a.983.983 0 01.271-.676z" fill="#fff"/><path fill-rule="evenodd" clip-rule="evenodd" d="M.271.28A.922.922 0 01.925 0a.897.897 0 01.653.28L12 11.06 22.422.28a.923.923 0 01.654-.28.898.898 0 01.653.28.96.96 0 01.271.676.985.985 0 01-.27.676L12.653 13.085a.921.921 0 01-.654.28.897.897 0 01-.653-.28L.27 1.632A.957.957 0 010 .956.983.983 0 01.271.28z" fill="#fff"/></svg>