<svg width="100" height="100" fill="none" xmlns="http://www.w3.org/2000/svg"><path d="M68.75 40.625a3.125 3.125 0 013.125-3.125h6.25a3.125 3.125 0 013.125 3.125v6.25A3.125 3.125 0 0178.125 50h-6.25a3.125 3.125 0 01-3.125-3.125v-6.25zm-18.75 0a3.125 3.125 0 013.125-3.125h6.25a3.125 3.125 0 013.125 3.125v6.25A3.125 3.125 0 0159.375 50h-6.25A3.125 3.125 0 0150 46.875v-6.25zm-31.25 18.75a3.125 3.125 0 013.125-3.125h6.25a3.125 3.125 0 013.125 3.125v6.25a3.125 3.125 0 01-3.125 3.125h-6.25a3.125 3.125 0 01-3.125-3.125v-6.25zm18.75 0a3.125 3.125 0 013.125-3.125h6.25A3.125 3.125 0 0150 59.375v6.25a3.125 3.125 0 01-3.125 3.125h-6.25a3.125 3.125 0 01-3.125-3.125v-6.25z" fill="currentColor"/><path d="M21.875 0A3.125 3.125 0 0125 3.125V6.25h50V3.125a3.125 3.125 0 116.25 0V6.25h6.25a12.5 12.5 0 0112.5 12.5V87.5A12.5 12.5 0 0187.5 100h-75A12.5 12.5 0 010 87.5V18.75a12.5 12.5 0 0112.5-12.5h6.25V3.125A3.125 3.125 0 0121.875 0zM6.25 25v62.5a6.25 6.25 0 006.25 6.25h75a6.25 6.25 0 006.25-6.25V25H6.25z" fill="currentColor"/></svg>