<svg width="40" height="40" fill="none" xmlns="http://www.w3.org/2000/svg"><g clip-path="url(#clip0_71_30)"><path d="M30.415 22.35c-1.31 2.655-3.085 5.3-4.9 7.675A78.759 78.759 0 0120 36.45a78.703 78.703 0 01-5.515-6.425c-1.815-2.375-3.59-5.02-4.9-7.675C8.26 19.667 7.5 17.155 7.5 15a12.5 12.5 0 1125 0c0 2.155-.762 4.668-2.085 7.35zM20 40s15-14.215 15-25a15 15 0 00-30 0c0 10.785 15 25 15 25z" fill="#000"/><path d="M30.415 22.35c-1.31 2.655-3.085 5.3-4.9 7.675A78.759 78.759 0 0120 36.45a78.703 78.703 0 01-5.515-6.425c-1.815-2.375-3.59-5.02-4.9-7.675C8.26 19.667 7.5 17.155 7.5 15a12.5 12.5 0 1125 0c0 2.155-.762 4.668-2.085 7.35zM20 40s15-14.215 15-25a15 15 0 00-30 0c0 10.785 15 25 15 25z" fill="#00A3FF"/><path d="M30.415 22.35c-1.31 2.655-3.085 5.3-4.9 7.675A78.759 78.759 0 0120 36.45a78.703 78.703 0 01-5.515-6.425c-1.815-2.375-3.59-5.02-4.9-7.675C8.26 19.667 7.5 17.155 7.5 15a12.5 12.5 0 1125 0c0 2.155-.762 4.668-2.085 7.35zM20 40s15-14.215 15-25a15 15 0 00-30 0c0 10.785 15 25 15 25z" fill="#fff"/><path d="M20 20a5 5 0 110-10 5 5 0 010 10zm0 2.5a7.5 7.5 0 100-15 7.5 7.5 0 000 15z" fill="#000"/><path d="M20 20a5 5 0 110-10 5 5 0 010 10zm0 2.5a7.5 7.5 0 100-15 7.5 7.5 0 000 15z" fill="#00A3FF"/><path d="M20 20a5 5 0 110-10 5 5 0 010 10zm0 2.5a7.5 7.5 0 100-15 7.5 7.5 0 000 15z" fill="#fff"/></g><defs><clipPath id="clip0_71_30"><path fill="#fff" d="M0 0h40v40H0z"/></clipPath></defs></svg>