<svg width="20" height="20" fill="none" xmlns="http://www.w3.org/2000/svg"><path d="M6.282 18.75c7.548 0 11.677-6.254 11.677-11.667 0-.175 0-.353-.008-.528A8.357 8.357 0 0020 4.428c-.75.33-1.547.549-2.361.647a4.126 4.126 0 001.809-2.271 8.166 8.166 0 01-2.61.991 4.107 4.107 0 00-6.994 3.743A11.656 11.656 0 011.385 3.25a4.111 4.111 0 001.273 5.48A4.154 4.154 0 01.8 8.219v.056a4.11 4.11 0 003.29 4.022 4.006 4.006 0 01-1.081.144 4.035 4.035 0 01-.768-.071 4.104 4.104 0 003.834 2.846 8.235 8.235 0 01-5.1 1.759A7.903 7.903 0 010 16.919a11.68 11.68 0 006.282 1.831z" fill="currentColor"/></svg>