<svg width="50" height="50" fill="none" xmlns="http://www.w3.org/2000/svg"><g clip-path="url(#clip0_88_795)"><path fill-rule="evenodd" clip-rule="evenodd" d="M35.938 3.894c2.6-2.672 9.103 2.006 0 8.019-9.104-6.013-2.6-10.691 0-8.02zm-7.813 11.731a9.375 9.375 0 11-18.75 0 9.375 9.375 0 0118.75 0zM0 40.625c0 3.125 3.125 3.125 3.125 3.125h31.25s3.125 0 3.125-3.125-3.125-12.5-18.75-12.5S0 37.5 0 40.625zm42.188-25.281c4.334-4.453 15.171 3.344 0 13.365-15.17-10.021-4.335-17.818 0-13.362v-.003zm4.687-8.578c1.734-1.782 6.069 1.337 0 5.347-6.069-4.01-1.734-7.129 0-5.344v-.003z" fill="#00A3FF"/></g><defs><clipPath id="clip0_88_795"><path fill="#fff" d="M0 0h50v50H0z"/></clipPath></defs></svg>