<svg width="50" height="50" fill="none" xmlns="http://www.w3.org/2000/svg"><path fill-rule="evenodd" clip-rule="evenodd" d="M25 10.29l18.75 18.75v13.148a4.688 4.688 0 01-4.688 4.687H10.939a4.688 4.688 0 01-4.688-4.688V29.041L25 10.29zm15.625-2.477V18.75l-6.25-6.25V7.812a1.563 1.563 0 011.563-1.562h3.124a1.563 1.563 0 011.563 1.563z" fill="#00A3FF"/><path fill-rule="evenodd" clip-rule="evenodd" d="M22.79 4.687a3.125 3.125 0 014.42 0l20.771 20.77a1.564 1.564 0 11-2.212 2.212L25 6.897 4.231 27.669a1.564 1.564 0 01-2.212-2.213L22.79 4.687z" fill="#000"/><path fill-rule="evenodd" clip-rule="evenodd" d="M22.79 4.687a3.125 3.125 0 014.42 0l20.771 20.77a1.564 1.564 0 11-2.212 2.212L25 6.897 4.231 27.669a1.564 1.564 0 01-2.212-2.213L22.79 4.687z" fill="#00A3FF"/></svg>