<svg width="169" height="35" fill="none" xmlns="http://www.w3.org/2000/svg"><path d="M17.153 31.996H7.486C5.722 32 4.34 30.84 4.042 29.101c-.034-.216-.034-.433-.034-.65 0-4.95 0-9.9-.008-14.841 0-1.115.408-2.022 1.265-2.729 3.244-2.695 6.497-5.391 9.75-8.07 1.314-1.081 3.003-1.081 4.318 0 3.236 2.654 6.472 5.316 9.709 7.97.873.716 1.306 1.63 1.306 2.77-.008 4.96 0 9.917-.008 14.876 0 1.739-.999 3.07-2.604 3.47a3.15 3.15 0 01-.957.099h-9.626zm0 0h9.626c.849-.785 1.597-2.512 1.589-3.669-.033-4.859-.025-9.709-.008-14.567 0-.641-.217-1.107-.708-1.506-3.128-2.57-6.248-5.158-9.376-7.746-.765-.632-1.439-.632-2.213.009-3.136 2.595-6.273 5.191-9.417 7.778-.441.367-.658.79-.658 1.373.009 4.917.009 9.834.009 14.75 0 1.032.757 2.851 1.489 3.578h9.667z" fill="#2C3A55"/><path d="M17.153 31.996H7.486C5.722 32 4.34 30.84 4.042 29.101c-.034-.216-.034-.433-.034-.65 0-4.95 0-9.9-.008-14.841 0-1.115.408-2.022 1.265-2.729 3.244-2.695 6.497-5.391 9.75-8.07 1.314-1.081 3.003-1.081 4.318 0 3.236 2.654 6.472 5.316 9.709 7.97.873.716 1.306 1.63 1.306 2.77-.008 4.96 0 9.917-.008 14.876 0 1.739-.999 3.07-2.604 3.47a3.15 3.15 0 01-.957.099h-9.626zm0 0h9.626c.849-.785 1.597-2.512 1.589-3.669-.033-4.859-.025-9.709-.008-14.567 0-.641-.217-1.107-.708-1.506-3.128-2.57-6.248-5.158-9.376-7.746-.765-.632-1.439-.632-2.213.009-3.136 2.595-6.273 5.191-9.417 7.778-.441.367-.658.79-.658 1.373.009 4.917.009 9.834.009 14.75 0 1.032.757 2.851 1.489 3.578h9.667z" fill="#fff"/><path d="M17.153 31.996H7.486C5.722 32 4.34 30.84 4.042 29.101c-.034-.216-.034-.433-.034-.65 0-4.95 0-9.9-.008-14.841 0-1.115.408-2.022 1.265-2.729 3.244-2.695 6.497-5.391 9.75-8.07 1.314-1.081 3.003-1.081 4.318 0 3.236 2.654 6.472 5.316 9.709 7.97.873.716 1.306 1.63 1.306 2.77-.008 4.96 0 9.917-.008 14.876 0 1.739-.999 3.07-2.604 3.47a3.15 3.15 0 01-.957.099h-9.626zm0 0h9.626c.849-.785 1.597-2.512 1.589-3.669-.033-4.859-.025-9.709-.008-14.567 0-.641-.217-1.107-.708-1.506-3.128-2.57-6.248-5.158-9.376-7.746-.765-.632-1.439-.632-2.213.009-3.136 2.595-6.273 5.191-9.417 7.778-.441.367-.658.79-.658 1.373.009 4.917.009 9.834.009 14.75 0 1.032.757 2.851 1.489 3.578h9.667z" fill="#2C3A55"/><path d="M17.17 29.55h-5.583c-.182 0-.374 0-.557-.05-.408-.109-.715-.541-.707-.957.008-.441.333-.849.757-.957.1-.025.208-.041.308-.041 3.843 0 7.695-.009 11.539 0 .732 0 1.215.598 1.04 1.256a.968.968 0 01-.84.724c-.183.016-.375.016-.558.016-1.797.008-3.594.008-5.4.008z" fill="#06B8FE"/><path d="M17.17 29.55h-5.583c-.182 0-.374 0-.557-.05-.408-.109-.715-.541-.707-.957.008-.441.333-.849.757-.957.1-.025.208-.041.308-.041 3.843 0 7.695-.009 11.539 0 .732 0 1.215.598 1.04 1.256a.968.968 0 01-.84.724c-.183.016-.375.016-.558.016-1.797.008-3.594.008-5.4.008z" fill="#2C3A55"/><path d="M17.17 29.55h-5.583c-.182 0-.374 0-.557-.05-.408-.109-.715-.541-.707-.957.008-.441.333-.849.757-.957.1-.025.208-.041.308-.041 3.843 0 7.695-.009 11.539 0 .732 0 1.215.598 1.04 1.256a.968.968 0 01-.84.724c-.183.016-.375.016-.558.016-1.797.008-3.594.008-5.4.008z" fill="#00A3FF"/><path fill="#06B8FE" d="M15.897 12.566h2.496v10.399h-2.496z"/><path fill="#2C3A55" d="M15.897 12.566h2.496v10.399h-2.496z"/><path fill="#00A3FF" d="M15.897 12.566h2.496v10.399h-2.496zM41.816 9c0 .525.065 1.004.194 1.437.13.423.315.787.555 1.09.25.295.55.526.901.691a2.76 2.76 0 001.193.249c.434 0 .827-.083 1.178-.249a2.52 2.52 0 00.888-.69c.25-.304.439-.668.568-1.091.13-.433.194-.912.194-1.437s-.065-1-.194-1.423a2.99 2.99 0 00-.568-1.09 2.45 2.45 0 00-.888-.705 2.728 2.728 0 00-1.178-.249 2.76 2.76 0 00-1.193.249c-.351.166-.651.4-.901.704a3.31 3.31 0 00-.555 1.091A4.86 4.86 0 0041.816 9zm7.501 0c0 .82-.124 1.542-.374 2.168a4.424 4.424 0 01-.998 1.575 4.098 4.098 0 01-1.47.94 5.084 5.084 0 01-1.803.317 5.197 5.197 0 01-1.816-.318 4.235 4.235 0 01-1.483-.939 4.694 4.694 0 01-.999-1.575C40.124 10.543 40 9.82 40 9c0-.82.125-1.538.374-2.155a4.583 4.583 0 011.012-1.574 4.279 4.279 0 011.498-.953A5.045 5.045 0 0144.672 4c.63 0 1.225.106 1.79.318a4.01 4.01 0 011.469.953c.425.423.762.948 1.012 1.574.25.617.374 1.335.374 2.155zm8.392 4.793a55.888 55.888 0 00-1.054-1.685 69.123 69.123 0 00-1.206-1.824 38.347 38.347 0 00-1.276-1.781c-.425-.58-.832-1.1-1.22-1.561v6.85h-1.72v-9.57h1.429c.37.387.767.847 1.192 1.381.426.525.85 1.073 1.276 1.644.434.57.85 1.146 1.248 1.726.407.571.767 1.105 1.081 1.603V4.22h1.733v9.572H57.71zm3.788 0V4.22h6.17v1.478h-4.423V8.06h3.938v1.45h-3.938v2.804H68v1.478h-6.503z"/><path d="M41.816 9c0 .525.065 1.004.194 1.437.13.423.315.787.555 1.09.25.295.55.526.901.691a2.76 2.76 0 001.193.249c.434 0 .827-.083 1.178-.249a2.52 2.52 0 00.888-.69c.25-.304.439-.668.568-1.091.13-.433.194-.912.194-1.437s-.065-1-.194-1.423a2.99 2.99 0 00-.568-1.09 2.45 2.45 0 00-.888-.705 2.728 2.728 0 00-1.178-.249 2.76 2.76 0 00-1.193.249c-.351.166-.651.4-.901.704a3.31 3.31 0 00-.555 1.091A4.86 4.86 0 0041.816 9zm7.501 0c0 .82-.124 1.542-.374 2.168a4.424 4.424 0 01-.998 1.575 4.098 4.098 0 01-1.47.94 5.084 5.084 0 01-1.803.317 5.197 5.197 0 01-1.816-.318 4.235 4.235 0 01-1.483-.939 4.694 4.694 0 01-.999-1.575C40.124 10.543 40 9.82 40 9c0-.82.125-1.538.374-2.155a4.583 4.583 0 011.012-1.574 4.279 4.279 0 011.498-.953A5.045 5.045 0 0144.672 4c.63 0 1.225.106 1.79.318a4.01 4.01 0 011.469.953c.425.423.762.948 1.012 1.574.25.617.374 1.335.374 2.155zm8.392 4.793a55.888 55.888 0 00-1.054-1.685 69.123 69.123 0 00-1.206-1.824 38.347 38.347 0 00-1.276-1.781c-.425-.58-.832-1.1-1.22-1.561v6.85h-1.72v-9.57h1.429c.37.387.767.847 1.192 1.381.426.525.85 1.073 1.276 1.644.434.57.85 1.146 1.248 1.726.407.571.767 1.105 1.081 1.603V4.22h1.733v9.572H57.71zm3.788 0V4.22h6.17v1.478h-4.423V8.06h3.938v1.45h-3.938v2.804H68v1.478h-6.503z" fill="#2C3A55"/><path d="M41.816 9c0 .525.065 1.004.194 1.437.13.423.315.787.555 1.09.25.295.55.526.901.691a2.76 2.76 0 001.193.249c.434 0 .827-.083 1.178-.249a2.52 2.52 0 00.888-.69c.25-.304.439-.668.568-1.091.13-.433.194-.912.194-1.437s-.065-1-.194-1.423a2.99 2.99 0 00-.568-1.09 2.45 2.45 0 00-.888-.705 2.728 2.728 0 00-1.178-.249 2.76 2.76 0 00-1.193.249c-.351.166-.651.4-.901.704a3.31 3.31 0 00-.555 1.091A4.86 4.86 0 0041.816 9zm7.501 0c0 .82-.124 1.542-.374 2.168a4.424 4.424 0 01-.998 1.575 4.098 4.098 0 01-1.47.94 5.084 5.084 0 01-1.803.317 5.197 5.197 0 01-1.816-.318 4.235 4.235 0 01-1.483-.939 4.694 4.694 0 01-.999-1.575C40.124 10.543 40 9.82 40 9c0-.82.125-1.538.374-2.155a4.583 4.583 0 011.012-1.574 4.279 4.279 0 011.498-.953A5.045 5.045 0 0144.672 4c.63 0 1.225.106 1.79.318a4.01 4.01 0 011.469.953c.425.423.762.948 1.012 1.574.25.617.374 1.335.374 2.155zm8.392 4.793a55.888 55.888 0 00-1.054-1.685 69.123 69.123 0 00-1.206-1.824 38.347 38.347 0 00-1.276-1.781c-.425-.58-.832-1.1-1.22-1.561v6.85h-1.72v-9.57h1.429c.37.387.767.847 1.192 1.381.426.525.85 1.073 1.276 1.644.434.57.85 1.146 1.248 1.726.407.571.767 1.105 1.081 1.603V4.22h1.733v9.572H57.71zm3.788 0V4.22h6.17v1.478h-4.423V8.06h3.938v1.45h-3.938v2.804H68v1.478h-6.503z" fill="#00A3FF"/><path d="M44.7 30c-.732 0-1.389-.11-1.97-.331a3.94 3.94 0 01-1.478-.967 4.412 4.412 0 01-.928-1.575C40.108 26.51 40 25.801 40 25c0-.801.122-1.51.366-2.127a4.602 4.602 0 011.027-1.56c.432-.434.938-.76 1.52-.982A5.223 5.223 0 0144.784 20c.403 0 .77.032 1.098.097.328.055.614.12.858.193.244.074.446.152.605.235.16.083.272.143.338.18l-.52 1.422c-.226-.138-.55-.267-.972-.387a4.513 4.513 0 00-1.35-.193c-.423 0-.817.074-1.183.221-.365.138-.684.35-.956.635a3.036 3.036 0 00-.62 1.078c-.15.432-.225.934-.225 1.505 0 .507.057.972.17 1.395.121.424.304.792.548 1.105.244.304.553.543.929.718.375.166.825.249 1.35.249.629 0 1.14-.06 1.534-.18.394-.128.699-.248.915-.359l.478 1.423a2.404 2.404 0 01-.464.221 7.18 7.18 0 01-.675.221 7.015 7.015 0 01-.887.152A7.61 7.61 0 0144.7 30zm5.84-5c0 .525.066 1.004.198 1.436.131.424.319.788.563 1.092.253.294.558.524.914.69.357.166.76.249 1.21.249.441 0 .84-.083 1.197-.249.356-.166.656-.396.9-.69.253-.304.446-.668.577-1.091.131-.433.197-.912.197-1.437s-.066-1-.197-1.423a2.973 2.973 0 00-.577-1.09 2.478 2.478 0 00-.9-.705 2.803 2.803 0 00-1.197-.249c-.45 0-.853.083-1.21.249a2.61 2.61 0 00-.914.704 3.269 3.269 0 00-.563 1.091A4.795 4.795 0 0050.54 25zm7.613 0c0 .82-.126 1.542-.38 2.169a4.417 4.417 0 01-1.013 1.574 4.16 4.16 0 01-1.491.94 5.228 5.228 0 01-1.83.317 5.344 5.344 0 01-1.843-.318 4.306 4.306 0 01-1.505-.939 4.688 4.688 0 01-1.014-1.574c-.253-.627-.38-1.35-.38-2.169 0-.82.127-1.538.38-2.155a4.578 4.578 0 011.028-1.574 4.35 4.35 0 011.52-.953A5.187 5.187 0 0153.44 20c.637 0 1.242.106 1.815.318.572.211 1.07.53 1.491.953a4.56 4.56 0 011.027 1.574c.254.617.38 1.335.38 2.155zm8.11 3.287v1.506h-6.164V20.22h1.773v8.066h4.39zM71.152 30c-.666 0-1.238-.092-1.717-.276a3.309 3.309 0 01-1.196-.801 3.27 3.27 0 01-.69-1.202 4.88 4.88 0 01-.224-1.52v-5.98h1.787v5.815c0 .433.047.806.14 1.119.104.304.244.552.422.746.188.193.404.336.648.428.253.092.535.138.844.138.31 0 .591-.046.844-.138a1.62 1.62 0 00.648-.428c.187-.194.328-.442.422-.746a3.59 3.59 0 00.155-1.12v-5.814h1.787v5.98c0 .553-.08 1.06-.24 1.52a3.156 3.156 0 01-1.9 2.003c-.487.184-1.064.276-1.73.276zm8.261-9.779c.207.35.437.778.69 1.285.253.506.511 1.04.774 1.602.263.552.52 1.119.774 1.699.263.57.502 1.1.718 1.588l.703-1.588c.253-.58.511-1.147.774-1.7.263-.561.52-1.095.774-1.601.253-.507.483-.935.69-1.285h1.604a90.131 90.131 0 01.436 4.655c.065.82.122 1.648.169 2.486.056.829.103 1.639.14 2.43h-1.745c-.037-1.113-.084-2.26-.14-3.438a64.376 64.376 0 00-.225-3.426 60.462 60.462 0 00-.816 1.726c-.16.341-.324.696-.493 1.064-.16.369-.319.728-.478 1.078-.15.34-.291.663-.423.966l-.337.76H81.68c-.094-.212-.206-.47-.338-.773a35.58 35.58 0 00-.436-.967c-.15-.35-.31-.71-.478-1.078a44.5 44.5 0 00-.479-1.063l-.45-.953c-.14-.304-.263-.557-.366-.76a75.689 75.689 0 00-.24 3.426 562.07 562.07 0 00-.126 3.439h-1.745c.038-.792.08-1.612.127-2.459l.169-2.514c.066-.837.136-1.648.21-2.43.076-.783.156-1.506.24-2.169h1.647zm13.253 9.682c-.516 0-1.037-.018-1.562-.055a7.08 7.08 0 01-1.38-.193v-9.296c.207-.037.428-.069.662-.097a8.99 8.99 0 01.718-.082 19.7 19.7 0 011.407-.056c.59 0 1.14.046 1.646.138a4.03 4.03 0 011.309.429c.375.202.666.47.872.8.207.332.31.742.31 1.23 0 .451-.113.838-.338 1.16-.216.322-.52.58-.915.774.591.193 1.028.479 1.31.856.28.378.421.856.421 1.437 0 .985-.366 1.726-1.097 2.223-.732.488-1.853.732-3.363.732zm-1.196-4.42v2.915a15.256 15.256 0 001.252.055c.366 0 .704-.023 1.013-.069.319-.046.591-.124.816-.235.235-.12.418-.276.549-.47.14-.193.211-.441.211-.745 0-.544-.202-.921-.605-1.133-.403-.212-.962-.318-1.674-.318H91.47zm0-1.367h1.252c.675 0 1.205-.092 1.59-.276.385-.194.577-.534.577-1.022 0-.46-.202-.788-.605-.981-.394-.193-.91-.29-1.548-.29-.272 0-.516.005-.732.014a7.17 7.17 0 00-.534.041v2.514zM102.73 30c-.666 0-1.238-.092-1.717-.276a3.313 3.313 0 01-1.196-.801 3.27 3.27 0 01-.69-1.202 4.88 4.88 0 01-.225-1.52v-5.98h1.787v5.815c0 .433.047.806.141 1.119.103.304.244.552.422.746.188.193.404.336.648.428.253.092.534.138.844.138.309 0 .591-.046.844-.138a1.62 1.62 0 00.647-.428 1.82 1.82 0 00.423-.746 3.6 3.6 0 00.154-1.12v-5.814h1.787v5.98c0 .553-.079 1.06-.239 1.52a3.165 3.165 0 01-1.899 2.003c-.488.184-1.065.276-1.731.276zm8.5-1.506c.638 0 1.103-.105 1.394-.317.29-.212.436-.511.436-.898 0-.23-.052-.428-.155-.594a1.357 1.357 0 00-.422-.442 2.928 2.928 0 00-.662-.373 8.632 8.632 0 00-.9-.345 15.51 15.51 0 01-.985-.387 3.64 3.64 0 01-.83-.539 2.596 2.596 0 01-.577-.76c-.141-.294-.211-.648-.211-1.063 0-.865.305-1.542.914-2.03.61-.497 1.44-.746 2.491-.746.61 0 1.149.07 1.618.207.479.13.854.272 1.126.428l-.549 1.41a4.238 4.238 0 00-1.055-.401 4.889 4.889 0 00-1.168-.138c-.479 0-.854.096-1.126.29-.263.193-.394.465-.394.814 0 .212.042.396.127.553.094.147.22.28.38.4.169.12.361.23.577.332.225.101.469.198.731.29.46.166.868.336 1.225.511.365.166.67.368.914.608.253.23.446.506.577.829.131.313.197.695.197 1.146 0 .866-.314 1.538-.943 2.017-.619.47-1.529.704-2.73.704-.403 0-.773-.028-1.111-.083a6.826 6.826 0 01-.887-.18 7.862 7.862 0 01-.661-.22 4.897 4.897 0 01-.45-.221l.52-1.423a6.09 6.09 0 001.028.414c.431.138.952.207 1.561.207zm11.208-8.37c1.407 0 2.481.254 3.222.76.75.506 1.126 1.28 1.126 2.32 0 1.299-.652 2.178-1.956 2.639.178.211.38.47.605.773.225.304.455.635.689.994.235.35.46.714.676 1.092.215.368.408.732.577 1.09h-1.984a18.871 18.871 0 00-.577-.994c-.207-.34-.418-.667-.634-.98a14.682 14.682 0 00-.619-.898 17.279 17.279 0 00-.577-.76 4.93 4.93 0 01-.337.014h-1.126v3.619h-1.773v-9.434a9.046 9.046 0 011.379-.18c.488-.036.924-.055 1.309-.055zm.126 1.506c-.375 0-.722.014-1.041.041v3.094h.774c.431 0 .811-.023 1.14-.069.328-.046.6-.129.816-.248.225-.12.394-.281.506-.484.113-.202.169-.46.169-.773 0-.295-.056-.544-.169-.746a1.226 1.226 0 00-.492-.484 2.148 2.148 0 00-.746-.248 5.144 5.144 0 00-.957-.083zm6.187 8.163V20.22h6.262v1.478h-4.489v2.362h3.996v1.45h-3.996v2.804h4.826v1.478h-6.599zm14.923 0c-.131-.378-.267-.75-.408-1.119-.14-.368-.276-.746-.408-1.133h-4.109c-.131.387-.267.77-.408 1.147l-.394 1.105h-1.843c.366-1.022.713-1.966 1.041-2.832.329-.865.648-1.685.957-2.458.319-.774.633-1.51.943-2.21.309-.7.628-1.39.957-2.072h1.674a67.105 67.105 0 011.886 4.282c.319.773.642 1.593.971 2.458.337.866.689 1.81 1.055 2.832h-1.914zm-2.87-7.721a56.64 56.64 0 00-.746 1.782c-.272.7-.558 1.46-.858 2.279h3.208c-.3-.82-.591-1.584-.872-2.293a56.597 56.597 0 00-.732-1.768zm12.18 6.215v1.506h-6.163V20.22h1.773v8.066h4.39zm6.708-8.066v1.506h-2.998v8.066h-1.787v-8.066h-2.997V20.22h7.782zm5.001 4.24c.422-.69.835-1.39 1.238-2.1.404-.708.77-1.422 1.098-2.14H169a82.174 82.174 0 01-1.646 2.914 62.679 62.679 0 01-1.816 2.9v3.758h-1.773v-3.73a73.762 73.762 0 01-1.829-2.928 82.174 82.174 0 01-1.646-2.914h2.082a30.7 30.7 0 001.084 2.14c.394.71.807 1.41 1.238 2.1z" fill="#fff"/><path d="M44.7 30c-.732 0-1.389-.11-1.97-.331a3.94 3.94 0 01-1.478-.967 4.412 4.412 0 01-.928-1.575C40.108 26.51 40 25.801 40 25c0-.801.122-1.51.366-2.127a4.602 4.602 0 011.027-1.56c.432-.434.938-.76 1.52-.982A5.223 5.223 0 0144.784 20c.403 0 .77.032 1.098.097.328.055.614.12.858.193.244.074.446.152.605.235.16.083.272.143.338.18l-.52 1.422c-.226-.138-.55-.267-.972-.387a4.513 4.513 0 00-1.35-.193c-.423 0-.817.074-1.183.221-.365.138-.684.35-.956.635a3.036 3.036 0 00-.62 1.078c-.15.432-.225.934-.225 1.505 0 .507.057.972.17 1.395.121.424.304.792.548 1.105.244.304.553.543.929.718.375.166.825.249 1.35.249.629 0 1.14-.06 1.534-.18.394-.128.699-.248.915-.359l.478 1.423a2.404 2.404 0 01-.464.221 7.18 7.18 0 01-.675.221 7.015 7.015 0 01-.887.152A7.61 7.61 0 0144.7 30zm5.84-5c0 .525.066 1.004.198 1.436.131.424.319.788.563 1.092.253.294.558.524.914.69.357.166.76.249 1.21.249.441 0 .84-.083 1.197-.249.356-.166.656-.396.9-.69.253-.304.446-.668.577-1.091.131-.433.197-.912.197-1.437s-.066-1-.197-1.423a2.973 2.973 0 00-.577-1.09 2.478 2.478 0 00-.9-.705 2.803 2.803 0 00-1.197-.249c-.45 0-.853.083-1.21.249a2.61 2.61 0 00-.914.704 3.269 3.269 0 00-.563 1.091A4.795 4.795 0 0050.54 25zm7.613 0c0 .82-.126 1.542-.38 2.169a4.417 4.417 0 01-1.013 1.574 4.16 4.16 0 01-1.491.94 5.228 5.228 0 01-1.83.317 5.344 5.344 0 01-1.843-.318 4.306 4.306 0 01-1.505-.939 4.688 4.688 0 01-1.014-1.574c-.253-.627-.38-1.35-.38-2.169 0-.82.127-1.538.38-2.155a4.578 4.578 0 011.028-1.574 4.35 4.35 0 011.52-.953A5.187 5.187 0 0153.44 20c.637 0 1.242.106 1.815.318.572.211 1.07.53 1.491.953a4.56 4.56 0 011.027 1.574c.254.617.38 1.335.38 2.155zm8.11 3.287v1.506h-6.164V20.22h1.773v8.066h4.39zM71.152 30c-.666 0-1.238-.092-1.717-.276a3.309 3.309 0 01-1.196-.801 3.27 3.27 0 01-.69-1.202 4.88 4.88 0 01-.224-1.52v-5.98h1.787v5.815c0 .433.047.806.14 1.119.104.304.244.552.422.746.188.193.404.336.648.428.253.092.535.138.844.138.31 0 .591-.046.844-.138a1.62 1.62 0 00.648-.428c.187-.194.328-.442.422-.746a3.59 3.59 0 00.155-1.12v-5.814h1.787v5.98c0 .553-.08 1.06-.24 1.52a3.156 3.156 0 01-1.9 2.003c-.487.184-1.064.276-1.73.276zm8.261-9.779c.207.35.437.778.69 1.285.253.506.511 1.04.774 1.602.263.552.52 1.119.774 1.699.263.57.502 1.1.718 1.588l.703-1.588c.253-.58.511-1.147.774-1.7.263-.561.52-1.095.774-1.601.253-.507.483-.935.69-1.285h1.604a90.131 90.131 0 01.436 4.655c.065.82.122 1.648.169 2.486.056.829.103 1.639.14 2.43h-1.745c-.037-1.113-.084-2.26-.14-3.438a64.376 64.376 0 00-.225-3.426 60.462 60.462 0 00-.816 1.726c-.16.341-.324.696-.493 1.064-.16.369-.319.728-.478 1.078-.15.34-.291.663-.423.966l-.337.76H81.68c-.094-.212-.206-.47-.338-.773a35.58 35.58 0 00-.436-.967c-.15-.35-.31-.71-.478-1.078a44.5 44.5 0 00-.479-1.063l-.45-.953c-.14-.304-.263-.557-.366-.76a75.689 75.689 0 00-.24 3.426 562.07 562.07 0 00-.126 3.439h-1.745c.038-.792.08-1.612.127-2.459l.169-2.514c.066-.837.136-1.648.21-2.43.076-.783.156-1.506.24-2.169h1.647zm13.253 9.682c-.516 0-1.037-.018-1.562-.055a7.08 7.08 0 01-1.38-.193v-9.296c.207-.037.428-.069.662-.097a8.99 8.99 0 01.718-.082 19.7 19.7 0 011.407-.056c.59 0 1.14.046 1.646.138a4.03 4.03 0 011.309.429c.375.202.666.47.872.8.207.332.31.742.31 1.23 0 .451-.113.838-.338 1.16-.216.322-.52.58-.915.774.591.193 1.028.479 1.31.856.28.378.421.856.421 1.437 0 .985-.366 1.726-1.097 2.223-.732.488-1.853.732-3.363.732zm-1.196-4.42v2.915a15.256 15.256 0 001.252.055c.366 0 .704-.023 1.013-.069.319-.046.591-.124.816-.235.235-.12.418-.276.549-.47.14-.193.211-.441.211-.745 0-.544-.202-.921-.605-1.133-.403-.212-.962-.318-1.674-.318H91.47zm0-1.367h1.252c.675 0 1.205-.092 1.59-.276.385-.194.577-.534.577-1.022 0-.46-.202-.788-.605-.981-.394-.193-.91-.29-1.548-.29-.272 0-.516.005-.732.014a7.17 7.17 0 00-.534.041v2.514zM102.73 30c-.666 0-1.238-.092-1.717-.276a3.313 3.313 0 01-1.196-.801 3.27 3.27 0 01-.69-1.202 4.88 4.88 0 01-.225-1.52v-5.98h1.787v5.815c0 .433.047.806.141 1.119.103.304.244.552.422.746.188.193.404.336.648.428.253.092.534.138.844.138.309 0 .591-.046.844-.138a1.62 1.62 0 00.647-.428 1.82 1.82 0 00.423-.746 3.6 3.6 0 00.154-1.12v-5.814h1.787v5.98c0 .553-.079 1.06-.239 1.52a3.165 3.165 0 01-1.899 2.003c-.488.184-1.065.276-1.731.276zm8.5-1.506c.638 0 1.103-.105 1.394-.317.29-.212.436-.511.436-.898 0-.23-.052-.428-.155-.594a1.357 1.357 0 00-.422-.442 2.928 2.928 0 00-.662-.373 8.632 8.632 0 00-.9-.345 15.51 15.51 0 01-.985-.387 3.64 3.64 0 01-.83-.539 2.596 2.596 0 01-.577-.76c-.141-.294-.211-.648-.211-1.063 0-.865.305-1.542.914-2.03.61-.497 1.44-.746 2.491-.746.61 0 1.149.07 1.618.207.479.13.854.272 1.126.428l-.549 1.41a4.238 4.238 0 00-1.055-.401 4.889 4.889 0 00-1.168-.138c-.479 0-.854.096-1.126.29-.263.193-.394.465-.394.814 0 .212.042.396.127.553.094.147.22.28.38.4.169.12.361.23.577.332.225.101.469.198.731.29.46.166.868.336 1.225.511.365.166.67.368.914.608.253.23.446.506.577.829.131.313.197.695.197 1.146 0 .866-.314 1.538-.943 2.017-.619.47-1.529.704-2.73.704-.403 0-.773-.028-1.111-.083a6.826 6.826 0 01-.887-.18 7.862 7.862 0 01-.661-.22 4.897 4.897 0 01-.45-.221l.52-1.423a6.09 6.09 0 001.028.414c.431.138.952.207 1.561.207zm11.208-8.37c1.407 0 2.481.254 3.222.76.75.506 1.126 1.28 1.126 2.32 0 1.299-.652 2.178-1.956 2.639.178.211.38.47.605.773.225.304.455.635.689.994.235.35.46.714.676 1.092.215.368.408.732.577 1.09h-1.984a18.871 18.871 0 00-.577-.994c-.207-.34-.418-.667-.634-.98a14.682 14.682 0 00-.619-.898 17.279 17.279 0 00-.577-.76 4.93 4.93 0 01-.337.014h-1.126v3.619h-1.773v-9.434a9.046 9.046 0 011.379-.18c.488-.036.924-.055 1.309-.055zm.126 1.506c-.375 0-.722.014-1.041.041v3.094h.774c.431 0 .811-.023 1.14-.069.328-.046.6-.129.816-.248.225-.12.394-.281.506-.484.113-.202.169-.46.169-.773 0-.295-.056-.544-.169-.746a1.226 1.226 0 00-.492-.484 2.148 2.148 0 00-.746-.248 5.144 5.144 0 00-.957-.083zm6.187 8.163V20.22h6.262v1.478h-4.489v2.362h3.996v1.45h-3.996v2.804h4.826v1.478h-6.599zm14.923 0c-.131-.378-.267-.75-.408-1.119-.14-.368-.276-.746-.408-1.133h-4.109c-.131.387-.267.77-.408 1.147l-.394 1.105h-1.843c.366-1.022.713-1.966 1.041-2.832.329-.865.648-1.685.957-2.458.319-.774.633-1.51.943-2.21.309-.7.628-1.39.957-2.072h1.674a67.105 67.105 0 011.886 4.282c.319.773.642 1.593.971 2.458.337.866.689 1.81 1.055 2.832h-1.914zm-2.87-7.721a56.64 56.64 0 00-.746 1.782c-.272.7-.558 1.46-.858 2.279h3.208c-.3-.82-.591-1.584-.872-2.293a56.597 56.597 0 00-.732-1.768zm12.18 6.215v1.506h-6.163V20.22h1.773v8.066h4.39zm6.708-8.066v1.506h-2.998v8.066h-1.787v-8.066h-2.997V20.22h7.782zm5.001 4.24c.422-.69.835-1.39 1.238-2.1.404-.708.77-1.422 1.098-2.14H169a82.174 82.174 0 01-1.646 2.914 62.679 62.679 0 01-1.816 2.9v3.758h-1.773v-3.73a73.762 73.762 0 01-1.829-2.928 82.174 82.174 0 01-1.646-2.914h2.082a30.7 30.7 0 001.084 2.14c.394.71.807 1.41 1.238 2.1z" fill="#2C3A55"/></svg>