<svg width="315" height="20" fill="none" xmlns="http://www.w3.org/2000/svg"><path d="M3.568 10c0 1.05.127 2.007.381 2.873.254.847.617 1.575 1.09 2.182.49.59 1.08 1.05 1.77 1.381.69.332 1.47.498 2.342.498.853 0 1.625-.166 2.315-.498a4.95 4.95 0 001.743-1.38c.49-.608.862-1.336 1.117-2.183.254-.866.38-1.823.38-2.873 0-1.05-.126-1.998-.38-2.845-.255-.866-.627-1.593-1.117-2.183a4.825 4.825 0 00-1.743-1.408c-.69-.332-1.462-.498-2.315-.498-.872 0-1.652.166-2.342.498-.69.331-1.28.8-1.77 1.408-.473.608-.836 1.336-1.09 2.183-.254.847-.381 1.795-.381 2.845zm14.734 0c0 1.639-.245 3.085-.735 4.337-.473 1.252-1.126 2.302-1.961 3.15a8.031 8.031 0 01-2.887 1.878 9.826 9.826 0 01-3.54.635c-1.254 0-2.443-.212-3.569-.635a8.3 8.3 0 01-2.914-1.879c-.817-.847-1.47-1.897-1.96-3.149S0 11.639 0 10c0-1.639.245-3.076.735-4.31.49-1.252 1.153-2.301 1.989-3.149A8.387 8.387 0 015.663.635 9.75 9.75 0 019.179 0c1.235 0 2.406.212 3.513.635a7.863 7.863 0 012.887 1.906c.836.848 1.498 1.897 1.989 3.15.49 1.233.735 2.67.735 4.309zm16.483 9.586a111.446 111.446 0 00-2.07-3.37 138.026 138.026 0 00-2.369-3.647 76.594 76.594 0 00-2.506-3.563 58.425 58.425 0 00-2.396-3.122v13.702h-3.377V.442h2.805a40.57 40.57 0 012.342 2.762c.835 1.05 1.67 2.146 2.506 3.288a85.566 85.566 0 012.45 3.453 70.321 70.321 0 012.125 3.204V.442h3.404v19.144h-2.914zm7.442 0V.442h12.12v2.956h-8.689v4.724h7.735v2.9h-7.735v5.608H55v2.956H42.227z" fill="#00A3FF"/><path d="M72.502 20c-1.428 0-2.708-.221-3.843-.663a7.675 7.675 0 01-2.883-1.934c-.786-.865-1.39-1.915-1.811-3.149-.421-1.234-.632-2.652-.632-4.254 0-1.602.238-3.02.714-4.254.494-1.234 1.162-2.275 2.004-3.122A8.278 8.278 0 0169.016.663 9.967 9.967 0 0172.666 0c.788 0 1.501.064 2.142.193.64.11 1.198.24 1.674.387.476.147.87.304 1.18.47.312.165.531.285.66.359l-1.016 2.845c-.44-.276-1.07-.534-1.894-.773a8.602 8.602 0 00-2.636-.387 5.98 5.98 0 00-2.306.442 4.98 4.98 0 00-1.866 1.27c-.512.572-.915 1.29-1.208 2.155-.293.866-.439 1.87-.439 3.011 0 1.013.11 1.943.33 2.79.237.848.594 1.584 1.07 2.21a5.001 5.001 0 001.812 1.437c.731.331 1.61.497 2.635.497 1.226 0 2.223-.12 2.992-.359.769-.258 1.363-.497 1.784-.718l.934 2.845c-.22.147-.522.295-.906.442a13.77 13.77 0 01-1.318.442c-.512.129-1.089.23-1.73.304-.64.092-1.326.138-2.058.138zm11.395-10c0 1.05.128 2.007.385 2.873.256.847.622 1.575 1.098 2.182a5.249 5.249 0 001.784 1.381c.696.332 1.483.498 2.361.498.86 0 1.638-.166 2.334-.498a4.983 4.983 0 001.756-1.38c.495-.608.87-1.336 1.126-2.183.256-.866.384-1.823.384-2.873 0-1.05-.128-1.998-.384-2.845-.256-.866-.632-1.593-1.126-2.183a4.857 4.857 0 00-1.756-1.408c-.696-.332-1.474-.498-2.334-.498-.878 0-1.665.166-2.36.498a5.108 5.108 0 00-1.785 1.408c-.476.608-.842 1.336-1.098 2.183-.257.847-.385 1.795-.385 2.845zm14.852 0c0 1.639-.247 3.085-.741 4.337-.476 1.252-1.135 2.302-1.977 3.15a8.103 8.103 0 01-2.91 1.878 9.974 9.974 0 01-3.569.635c-1.262 0-2.461-.212-3.596-.635a8.374 8.374 0 01-2.937-1.879c-.824-.847-1.483-1.897-1.977-3.149s-.74-2.698-.74-4.337c0-1.639.246-3.076.74-4.31.495-1.252 1.162-2.301 2.004-3.149A8.461 8.461 0 0186.011.635 9.898 9.898 0 0189.552 0c1.245 0 2.425.212 3.542.635a7.932 7.932 0 012.91 1.906c.842.848 1.51 1.897 2.004 3.15.494 1.233.74 2.67.74 4.309zm15.82 6.575v3.01h-12.024V.443h3.459v16.133h8.565zM124.11 20c-1.299 0-2.416-.184-3.349-.552-.934-.387-1.711-.921-2.334-1.603a6.582 6.582 0 01-1.345-2.403c-.293-.92-.439-1.934-.439-3.039V.442h3.486v11.63c0 .865.092 1.611.275 2.237.201.608.476 1.105.823 1.492a3.42 3.42 0 001.263.856 4.686 4.686 0 001.647.277c.604 0 1.153-.092 1.647-.277.495-.184.916-.47 1.263-.856.366-.387.641-.884.824-1.492.201-.626.302-1.372.302-2.237V.442h3.486v11.961c0 1.105-.155 2.118-.466 3.039a6.39 6.39 0 01-1.373 2.403c-.604.682-1.382 1.216-2.333 1.603-.952.368-2.078.552-3.377.552zM140.227.442c.403.7.851 1.556 1.345 2.569.495 1.013.998 2.081 1.51 3.204a115.786 115.786 0 011.51 3.398c.513 1.142.979 2.201 1.4 3.177l1.373-3.177c.494-1.16.997-2.293 1.51-3.398a135.741 135.741 0 011.509-3.204c.495-1.013.943-1.87 1.346-2.569h3.129c.165 1.4.32 2.891.467 4.475.146 1.566.274 3.177.384 4.834.128 1.64.238 3.297.33 4.973.109 1.657.201 3.278.274 4.862h-3.404a512.141 512.141 0 00-.274-6.879 131.76 131.76 0 00-.44-6.85c-.201.423-.439.93-.713 1.519-.275.589-.568 1.234-.879 1.933-.311.682-.631 1.39-.961 2.128-.311.736-.622 1.454-.933 2.154-.293.682-.567 1.326-.824 1.934l-.659 1.52h-2.58c-.183-.424-.403-.94-.659-1.548a71.966 71.966 0 00-.851-1.934 100 100 0 00-.933-2.154 77.826 77.826 0 00-.934-2.127 298.11 298.11 0 00-.878-1.906 46.328 46.328 0 00-.714-1.52c-.201 2.21-.357 4.494-.466 6.851a1183.5 1183.5 0 00-.248 6.879h-3.404c.074-1.584.156-3.223.247-4.917.11-1.695.22-3.37.33-5.028.128-1.676.265-3.297.412-4.862.146-1.565.302-3.011.466-4.337h3.212zm25.854 19.365a42.87 42.87 0 01-3.047-.11c-1.025-.056-1.922-.185-2.691-.388V.72c.403-.074.833-.139 1.291-.194.457-.074.924-.13 1.4-.166a34.875 34.875 0 012.745-.11c1.153 0 2.223.092 3.212.276.988.166 1.839.451 2.553.856.732.405 1.299.94 1.702 1.602.402.663.604 1.483.604 2.459 0 .902-.22 1.676-.659 2.32-.421.645-1.016 1.16-1.784 1.547 1.153.387 2.004.958 2.553 1.713.549.755.823 1.713.823 2.873 0 1.97-.714 3.453-2.141 4.448-1.428.976-3.615 1.464-6.561 1.464zm-2.334-8.84v5.829a29.037 29.037 0 002.444.11c.713 0 1.372-.046 1.976-.138.622-.092 1.153-.249 1.592-.47.458-.24.815-.552 1.071-.939.275-.387.412-.884.412-1.492 0-1.086-.394-1.841-1.181-2.265-.787-.423-1.875-.635-3.266-.635h-3.048zm0-2.735h2.444c1.317 0 2.351-.184 3.102-.552.75-.387 1.125-1.069 1.125-2.045 0-.92-.393-1.574-1.18-1.961-.769-.387-1.775-.58-3.02-.58-.531 0-1.006.01-1.427.028-.403.018-.751.046-1.044.082v5.028zM185.715 20c-1.299 0-2.416-.184-3.349-.552-.933-.387-1.711-.921-2.333-1.603a6.584 6.584 0 01-1.346-2.403c-.292-.92-.439-1.934-.439-3.039V.442h3.487v11.63c0 .865.091 1.611.274 2.237.201.608.476 1.105.824 1.492.366.387.787.672 1.262.856a4.695 4.695 0 001.648.277c.604 0 1.153-.092 1.647-.277.494-.184.915-.47 1.262-.856.366-.387.641-.884.824-1.492.201-.626.302-1.372.302-2.237V.442h3.486v11.961c0 1.105-.155 2.118-.466 3.039a6.39 6.39 0 01-1.373 2.403c-.604.682-1.382 1.216-2.333 1.603-.952.368-2.078.552-3.377.552zm16.584-3.011c1.245 0 2.151-.212 2.718-.635.567-.424.851-1.022.851-1.796 0-.46-.101-.856-.302-1.188a2.674 2.674 0 00-.824-.884 5.657 5.657 0 00-1.29-.746c-.512-.24-1.098-.47-1.757-.69a29.758 29.758 0 01-1.921-.774 7.11 7.11 0 01-1.62-1.077 5.197 5.197 0 01-1.126-1.52c-.274-.589-.411-1.298-.411-2.127 0-1.73.594-3.084 1.784-4.06C199.591.497 201.21 0 203.26 0c1.19 0 2.242.138 3.157.414.933.258 1.665.544 2.196.857l-1.071 2.817a8.127 8.127 0 00-2.058-.8 9.314 9.314 0 00-2.279-.277c-.933 0-1.665.193-2.196.58-.513.387-.769.93-.769 1.63 0 .424.083.792.247 1.105.183.295.43.562.741.801.33.24.705.46 1.126.663.439.203.915.396 1.428.58a23.48 23.48 0 012.388 1.022c.714.332 1.308.737 1.784 1.216.494.46.87 1.013 1.126 1.657.256.626.384 1.39.384 2.293 0 1.731-.613 3.076-1.839 4.033-1.208.94-2.983 1.409-5.326 1.409-.787 0-1.51-.055-2.169-.166a12.95 12.95 0 01-1.729-.359 14.847 14.847 0 01-1.29-.442 9.75 9.75 0 01-.879-.442l1.016-2.845c.494.276 1.162.552 2.004.829.842.276 1.858.414 3.047.414zM224.163.249c2.745 0 4.841.506 6.287 1.519 1.464 1.013 2.196 2.56 2.196 4.64 0 2.598-1.272 4.356-3.816 5.277.348.424.741.94 1.18 1.547.44.608.888 1.27 1.345 1.989.458.7.897 1.427 1.318 2.182.421.737.796 1.464 1.126 2.183h-3.871a36.386 36.386 0 00-1.126-1.99 39.32 39.32 0 00-1.235-1.96 30.355 30.355 0 00-1.208-1.796 36.556 36.556 0 00-1.125-1.52 9.366 9.366 0 01-.659.028h-2.196v7.238h-3.459V.718a17.264 17.264 0 012.69-.359 33.45 33.45 0 012.553-.11zm.247 3.01c-.732 0-1.409.028-2.031.084V9.53h1.51c.841 0 1.583-.046 2.223-.138.641-.092 1.171-.258 1.592-.497.44-.24.769-.562.989-.967.219-.405.329-.92.329-1.547 0-.59-.11-1.086-.329-1.492a2.436 2.436 0 00-.961-.966c-.403-.24-.888-.406-1.455-.498a9.783 9.783 0 00-1.867-.165zm12.07 16.327V.442h12.216v2.956h-8.757v4.724h7.796v2.9h-7.796v5.608h9.416v2.956H236.48zm29.114 0a78.586 78.586 0 00-.796-2.238 65.848 65.848 0 01-.796-2.265h-8.016a85.229 85.229 0 01-.796 2.293l-.769 2.21h-3.596a299.186 299.186 0 013.898-10.58 195.51 195.51 0 011.839-4.42c.604-1.4 1.227-2.781 1.867-4.144h3.267a136.051 136.051 0 013.679 8.564 190.774 190.774 0 011.894 4.917 218.534 218.534 0 012.059 5.663h-3.734zm-5.6-15.442a117.81 117.81 0 00-1.455 3.563 257.62 257.62 0 00-1.675 4.558h6.259a184.53 184.53 0 00-1.702-4.585 109.566 109.566 0 00-1.427-3.536zm23.763 12.43v3.012h-12.024V.442h3.459v16.133h8.565zM296.842.443v3.011h-5.847v16.133h-3.487V3.453h-5.847V.442h15.181zm9.758 8.48a153.25 153.25 0 002.415-4.198 55.066 55.066 0 002.142-4.282H315a166.673 166.673 0 01-3.212 5.829 126.568 126.568 0 01-3.541 5.8v7.515h-3.459v-7.459a148.651 148.651 0 01-3.569-5.856 166.673 166.673 0 01-3.212-5.829h4.063a61.854 61.854 0 002.114 4.282 95.831 95.831 0 002.416 4.199z" fill="#fff"/></svg>