<svg width="361" height="55" fill="none" xmlns="http://www.w3.org/2000/svg"><path d="M73.379 27.712c0 .94.115 1.798.346 2.574.231.759.561 1.41.99 1.955.445.528.982.94 1.609 1.237.627.297 1.336.446 2.128.446.776 0 1.477-.149 2.104-.446a4.488 4.488 0 001.584-1.237c.445-.545.784-1.196 1.015-1.955.23-.776.346-1.634.346-2.574s-.115-1.79-.346-2.55c-.231-.775-.57-1.427-1.015-1.955a4.374 4.374 0 00-1.584-1.262c-.627-.297-1.328-.446-2.104-.446-.792 0-1.501.149-2.128.446a4.601 4.601 0 00-1.609 1.262c-.429.545-.759 1.196-.99 1.955-.231.76-.346 1.61-.346 2.55zm13.39 0c0 1.468-.224 2.763-.669 3.885-.429 1.122-1.023 2.063-1.782 2.822a7.312 7.312 0 01-2.623 1.683 9.044 9.044 0 01-3.218.57c-1.139 0-2.22-.19-3.242-.57a7.557 7.557 0 01-2.648-1.683c-.743-.76-1.337-1.7-1.782-2.822-.446-1.122-.669-2.417-.669-3.885 0-1.469.223-2.756.669-3.861.445-1.122 1.047-2.063 1.806-2.822a7.634 7.634 0 012.673-1.708 8.974 8.974 0 013.193-.569c1.122 0 2.186.19 3.193.57a7.156 7.156 0 012.623 1.707c.76.76 1.361 1.7 1.807 2.822.446 1.105.668 2.392.668 3.86zm14.979 8.588a98.978 98.978 0 00-1.881-3.02 123.476 123.476 0 00-2.154-3.267 68.565 68.565 0 00-2.277-3.192 52.453 52.453 0 00-2.178-2.797V36.3H90.19V19.148h2.55c.66.693 1.37 1.518 2.128 2.475.76.94 1.518 1.922 2.277 2.945a76.66 76.66 0 012.228 3.094 62.618 62.618 0 011.93 2.871V19.148h3.094V36.3h-2.648zm6.762 0V19.148h11.014v2.648h-7.895v4.233h7.029v2.598h-7.029v5.025h8.489V36.3H108.51z" fill="#00A3FF"/><path d="M136.411 36.671c-1.287 0-2.441-.198-3.464-.594a6.917 6.917 0 01-2.599-1.732c-.71-.776-1.254-1.716-1.634-2.822-.379-1.105-.569-2.376-.569-3.811 0-1.436.215-2.706.644-3.812.445-1.105 1.047-2.038 1.806-2.797a7.467 7.467 0 012.673-1.757 9.038 9.038 0 013.292-.594 9.87 9.87 0 011.93.173c.578.1 1.081.215 1.51.347.429.132.784.272 1.064.42.281.15.479.256.594.322l-.916 2.55c-.396-.248-.965-.479-1.707-.693a7.8 7.8 0 00-2.376-.347 5.42 5.42 0 00-2.079.396 4.49 4.49 0 00-1.683 1.139c-.462.511-.825 1.155-1.089 1.93-.264.776-.396 1.675-.396 2.698 0 .907.099 1.74.297 2.5.215.759.536 1.419.965 1.98.429.544.974.973 1.634 1.287.659.297 1.451.445 2.375.445 1.106 0 2.005-.107 2.698-.322.693-.23 1.229-.445 1.609-.643l.841 2.55c-.198.131-.47.263-.816.395-.33.132-.726.264-1.188.396a12.15 12.15 0 01-1.56.272c-.577.083-1.196.124-1.856.124zm10.274-8.96c0 .941.116 1.8.347 2.575.231.759.561 1.41.99 1.955.445.528.981.94 1.608 1.237.627.297 1.337.446 2.129.446.775 0 1.477-.149 2.104-.446a4.488 4.488 0 001.584-1.237c.445-.545.783-1.196 1.014-1.955.231-.776.347-1.634.347-2.574s-.116-1.79-.347-2.55c-.231-.775-.569-1.427-1.014-1.955a4.374 4.374 0 00-1.584-1.262c-.627-.297-1.329-.446-2.104-.446-.792 0-1.502.149-2.129.446a4.594 4.594 0 00-1.608 1.262c-.429.545-.759 1.196-.99 1.955-.231.76-.347 1.61-.347 2.55zm13.39 0c0 1.47-.223 2.764-.668 3.886-.429 1.122-1.023 2.063-1.782 2.822a7.314 7.314 0 01-2.624 1.683 9.04 9.04 0 01-3.217.57c-1.139 0-2.22-.19-3.243-.57a7.56 7.56 0 01-2.648-1.683c-.742-.76-1.336-1.7-1.782-2.822-.445-1.122-.668-2.417-.668-3.885 0-1.469.223-2.756.668-3.861.446-1.122 1.048-2.063 1.807-2.822a7.625 7.625 0 012.673-1.708 8.973 8.973 0 013.193-.569c1.122 0 2.186.19 3.192.57a7.158 7.158 0 012.624 1.707c.759.76 1.361 1.7 1.807 2.822.445 1.105.668 2.392.668 3.86zm14.263 5.891V36.3h-10.841V19.148h3.119v14.454h7.722zm8.602 3.07c-1.172 0-2.178-.166-3.02-.496-.841-.346-1.542-.825-2.103-1.435a5.88 5.88 0 01-1.213-2.154c-.264-.825-.396-1.732-.396-2.722V19.148h3.143v10.42c0 .775.083 1.444.248 2.005.181.544.429.99.742 1.336.33.347.71.602 1.139.767.445.165.94.248 1.485.248.544 0 1.039-.083 1.485-.248.445-.165.825-.42 1.138-.767.33-.346.578-.792.743-1.336.181-.561.272-1.23.272-2.005v-10.42h3.143v10.717c0 .99-.14 1.897-.421 2.722a5.71 5.71 0 01-1.237 2.154c-.545.61-1.246 1.089-2.104 1.435-.858.33-1.873.495-3.044.495zm14.531-17.524c.363.627.767 1.394 1.213 2.302.445.907.899 1.864 1.361 2.87.462.99.916 2.006 1.361 3.045.462 1.023.883 1.972 1.262 2.846l1.238-2.846c.445-1.04.899-2.054 1.361-3.044.462-1.007.916-1.964 1.361-2.871.446-.908.85-1.675 1.213-2.302h2.822c.148 1.254.288 2.59.42 4.01.132 1.402.248 2.846.347 4.33.115 1.47.214 2.954.297 4.456a217.2 217.2 0 01.247 4.356h-3.069c-.066-1.997-.148-4.05-.247-6.163a118.63 118.63 0 00-.396-6.138 117.95 117.95 0 00-1.436 3.094c-.28.61-.569 1.246-.866 1.906-.28.66-.561 1.303-.841 1.93-.264.61-.512 1.188-.743 1.733l-.594 1.36h-2.326c-.165-.379-.363-.84-.594-1.385a63.068 63.068 0 00-.768-1.733 86.549 86.549 0 00-.841-1.93 72.31 72.31 0 00-.842-1.906c-.28-.61-.544-1.18-.792-1.708a41.947 41.947 0 00-.643-1.36c-.182 1.98-.322 4.025-.421 6.137-.082 2.112-.157 4.166-.223 6.163h-3.069c.066-1.42.141-2.888.223-4.406.099-1.518.198-3.02.297-4.504.116-1.502.239-2.954.371-4.356.132-1.403.273-2.698.421-3.886h2.896zm23.309 17.35c-.908 0-1.823-.033-2.747-.1-.924-.049-1.733-.164-2.426-.346V19.397c.363-.066.751-.124 1.163-.174.413-.066.834-.115 1.263-.148a31.64 31.64 0 012.475-.099c1.039 0 2.004.082 2.895.247.891.149 1.659.405 2.302.768.66.363 1.172.841 1.535 1.435.363.594.544 1.328.544 2.203 0 .808-.198 1.501-.594 2.079-.379.577-.916 1.04-1.609 1.386 1.04.346 1.807.858 2.302 1.534.495.677.743 1.535.743 2.574 0 1.766-.644 3.094-1.931 3.985-1.287.875-3.259 1.312-5.915 1.312zm-2.104-7.92V33.8a26.327 26.327 0 002.203.099c.643 0 1.237-.041 1.782-.124.561-.082 1.039-.222 1.435-.42.413-.215.735-.495.966-.842.247-.346.371-.792.371-1.336 0-.974-.355-1.65-1.064-2.03-.71-.38-1.692-.57-2.946-.57h-2.747zm0-2.45h2.203c1.188 0 2.12-.165 2.797-.495.676-.347 1.014-.957 1.014-1.832 0-.825-.354-1.41-1.064-1.757-.693-.347-1.6-.52-2.722-.52-.479 0-.908.008-1.287.025-.363.016-.677.041-.941.074v4.505zm19.806 10.543c-1.172 0-2.178-.165-3.02-.495-.841-.346-1.543-.825-2.104-1.435a5.892 5.892 0 01-1.212-2.154c-.264-.825-.396-1.732-.396-2.722V19.148h3.143v10.42c0 .775.082 1.444.247 2.005.182.544.429.99.743 1.336.33.347.709.602 1.138.767.446.165.941.248 1.485.248.545 0 1.04-.083 1.485-.248a2.84 2.84 0 001.139-.767c.33-.346.577-.792.742-1.336.182-.561.273-1.23.273-2.005v-10.42h3.143v10.717c0 .99-.14 1.897-.421 2.722a5.71 5.71 0 01-1.237 2.154c-.545.61-1.246 1.089-2.104 1.435-.858.33-1.873.495-3.044.495zm14.951-2.698c1.122 0 1.939-.19 2.451-.569.511-.38.767-.916.767-1.609 0-.412-.091-.767-.272-1.064a2.402 2.402 0 00-.743-.792 5.124 5.124 0 00-1.163-.668c-.462-.215-.99-.42-1.584-.619a27.078 27.078 0 01-1.733-.693 6.42 6.42 0 01-1.46-.965 4.671 4.671 0 01-1.015-1.361c-.247-.528-.371-1.164-.371-1.906 0-1.551.536-2.764 1.609-3.638 1.072-.891 2.533-1.337 4.381-1.337 1.072 0 2.021.124 2.846.371.841.231 1.501.487 1.98.768l-.965 2.524a7.357 7.357 0 00-1.857-.718 8.433 8.433 0 00-2.054-.247c-.841 0-1.501.173-1.98.52-.462.346-.693.833-.693 1.46 0 .38.074.71.223.99.165.264.388.503.668.718.297.214.635.412 1.015.594.396.181.825.354 1.287.52a21.17 21.17 0 012.153.915c.644.297 1.18.66 1.609 1.09.445.412.784.907 1.015 1.484.231.561.346 1.246.346 2.054 0 1.551-.553 2.756-1.658 3.614-1.089.841-2.69 1.262-4.802 1.262-.709 0-1.361-.05-1.955-.148a11.763 11.763 0 01-1.559-.322 13.403 13.403 0 01-1.163-.396 8.748 8.748 0 01-.792-.396l.915-2.55c.446.248 1.048.496 1.807.743.759.248 1.675.371 2.747.371zm19.712-14.998c2.475 0 4.365.454 5.668 1.361 1.32.908 1.98 2.294 1.98 4.158 0 2.327-1.147 3.902-3.44 4.727.313.38.668.842 1.064 1.386.396.545.8 1.139 1.213 1.782.412.627.808 1.28 1.188 1.956.379.66.718 1.311 1.015 1.955h-3.49a32.931 32.931 0 00-1.015-1.782 35.315 35.315 0 00-1.114-1.757 27.193 27.193 0 00-1.089-1.61 33.136 33.136 0 00-1.014-1.36 8.514 8.514 0 01-.594.024h-1.98V36.3h-3.119V19.396a15.67 15.67 0 012.426-.322 30.325 30.325 0 012.301-.1zm.223 2.698c-.66 0-1.27.024-1.831.074v5.544h1.361c.759 0 1.427-.041 2.005-.124.577-.082 1.056-.23 1.435-.445a2.15 2.15 0 00.891-.867c.198-.363.297-.825.297-1.386 0-.528-.099-.973-.297-1.336a2.19 2.19 0 00-.866-.866c-.363-.215-.8-.363-1.312-.446a8.865 8.865 0 00-1.683-.148zM284.25 36.3V19.148h11.014v2.648h-7.896v4.233h7.029v2.598h-7.029v5.025h8.49V36.3H284.25zm26.249 0a73.28 73.28 0 00-.718-2.005 57.146 57.146 0 01-.718-2.03h-7.227a72.94 72.94 0 01-.718 2.055l-.693 1.98h-3.242a291.828 291.828 0 011.832-5.074 255.45 255.45 0 011.683-4.405 169.538 169.538 0 011.658-3.96 124.209 124.209 0 011.683-3.713h2.945a121.45 121.45 0 013.317 7.672 166.38 166.38 0 011.707 4.406 196.457 196.457 0 011.857 5.074h-3.366zm-5.049-13.835c-.38.874-.817 1.938-1.312 3.192a221.956 221.956 0 00-1.51 4.084h5.643a167.021 167.021 0 00-1.534-4.108 98.548 98.548 0 00-1.287-3.168zm21.423 11.137V36.3h-10.84V19.148h3.118v14.454h7.722zm11.798-14.454v2.698h-5.272V36.3h-3.143V21.846h-5.272v-2.698h13.687zm8.797 7.598a137.061 137.061 0 002.178-3.762 49.08 49.08 0 001.931-3.836h3.465c-.924 1.75-1.89 3.49-2.896 5.222a113.083 113.083 0 01-3.193 5.198V36.3h-3.118v-6.683a132.557 132.557 0 01-3.218-5.247 149.123 149.123 0 01-2.896-5.222h3.663a55.456 55.456 0 001.906 3.836 85.534 85.534 0 002.178 3.762z" fill="#fff"/><path d="M27.114 54.993H9.391c-3.235.007-5.766-2.12-6.315-5.308-.06-.397-.06-.793-.06-1.19 0-9.075 0-18.15-.016-27.21 0-2.044.747-3.707 2.318-5.003A5399.447 5399.447 0 0123.194 1.487c2.41-1.983 5.506-1.983 7.916 0 5.934 4.866 11.867 9.746 17.8 14.612 1.601 1.312 2.395 2.99 2.395 5.079-.016 9.09 0 18.18-.016 27.271 0 3.188-1.83 5.629-4.774 6.36a5.696 5.696 0 01-1.754.184H27.114zm0 0h17.647c1.557-1.44 2.929-4.607 2.913-6.727-.06-8.907-.045-17.8-.015-26.707 0-1.174-.396-2.028-1.296-2.76-5.735-4.713-11.455-9.457-17.19-14.2-1.403-1.16-2.638-1.16-4.057.015-5.75 4.759-11.5 9.517-17.266 14.26-.808.672-1.205 1.45-1.205 2.518.016 9.014.016 18.028.016 27.042 0 1.891 1.388 5.226 2.73 6.559h17.723z" fill="#2C3A55"/><path d="M27.114 54.993H9.391c-3.235.007-5.766-2.12-6.315-5.308-.06-.397-.06-.793-.06-1.19 0-9.075 0-18.15-.016-27.21 0-2.044.747-3.707 2.318-5.003A5399.447 5399.447 0 0123.194 1.487c2.41-1.983 5.506-1.983 7.916 0 5.934 4.866 11.867 9.746 17.8 14.612 1.601 1.312 2.395 2.99 2.395 5.079-.016 9.09 0 18.18-.016 27.271 0 3.188-1.83 5.629-4.774 6.36a5.696 5.696 0 01-1.754.184H27.114zm0 0h17.647c1.557-1.44 2.929-4.607 2.913-6.727-.06-8.907-.045-17.8-.015-26.707 0-1.174-.396-2.028-1.296-2.76-5.735-4.713-11.455-9.457-17.19-14.2-1.403-1.16-2.638-1.16-4.057.015-5.75 4.759-11.5 9.517-17.266 14.26-.808.672-1.205 1.45-1.205 2.518.016 9.014.016 18.028.016 27.042 0 1.891 1.388 5.226 2.73 6.559h17.723z" fill="#fff"/><path d="M27.145 50.508H16.91c-.335 0-.686 0-1.021-.092-.748-.198-1.312-.991-1.297-1.754a1.89 1.89 0 011.388-1.754 2.39 2.39 0 01.564-.076c7.047 0 14.109-.016 21.156 0 1.342 0 2.226 1.098 1.906 2.303a1.774 1.774 0 01-1.54 1.327c-.336.03-.687.03-1.022.03-3.295.016-6.59.016-9.9.016zm-2.334-31.137h4.576v19.066h-4.576z" fill="#06B8FE"/></svg>