<svg width="715" height="354" fill="none" xmlns="http://www.w3.org/2000/svg"><path d="M8.292 287.02c0 2.308.284 4.414.85 6.318.568 1.863 1.378 3.462 2.43 4.799a11.608 11.608 0 003.95 3.037c1.539.729 3.28 1.094 5.224 1.094 1.904 0 3.625-.365 5.164-1.094a11.015 11.015 0 003.888-3.037c1.093-1.337 1.924-2.936 2.49-4.799.568-1.904.851-4.01.851-6.318 0-2.309-.284-4.395-.85-6.258-.568-1.903-1.398-3.503-2.491-4.799a10.74 10.74 0 00-3.888-3.098c-1.54-.729-3.26-1.094-5.164-1.094-1.944 0-3.685.365-5.224 1.094a11.299 11.299 0 00-3.95 3.098c-1.052 1.337-1.862 2.936-2.43 4.799-.566 1.863-.85 3.949-.85 6.258zm32.866 0c0 3.604-.547 6.783-1.64 9.537-1.053 2.754-2.511 5.063-4.374 6.926-1.823 1.822-3.97 3.199-6.44 4.131-2.47.931-5.103 1.397-7.897 1.397-2.795 0-5.447-.466-7.958-1.397a18.561 18.561 0 01-6.5-4.131c-1.823-1.863-3.281-4.172-4.375-6.926-1.093-2.754-1.64-5.933-1.64-9.537 0-3.605.547-6.764 1.64-9.477 1.094-2.754 2.572-5.063 4.435-6.926a18.746 18.746 0 016.561-4.192c2.47-.931 5.083-1.397 7.837-1.397 2.754 0 5.366.466 7.837 1.397a17.57 17.57 0 016.439 4.192c1.863 1.863 3.341 4.172 4.435 6.926 1.093 2.713 1.64 5.872 1.64 9.477zm36.768 21.08a244.763 244.763 0 00-4.617-7.412 303.087 303.087 0 00-5.286-8.019 168.54 168.54 0 00-5.589-7.836 128.552 128.552 0 00-5.346-6.865V308.1h-7.533V266h6.258c1.62 1.701 3.361 3.726 5.224 6.075a225.246 225.246 0 015.59 7.229 188.523 188.523 0 015.467 7.594 154.522 154.522 0 014.738 7.047V266h7.594v42.1h-6.5zm16.599 0V266h27.033v6.5h-19.379v10.389h17.253v6.378h-17.253V301.6h20.837v6.5H94.524z" fill="#00A3FF"/><path d="M163.009 309.011c-3.159 0-5.993-.486-8.504-1.458-2.511-.972-4.637-2.389-6.379-4.252-1.741-1.904-3.078-4.212-4.009-6.926-.932-2.713-1.397-5.832-1.397-9.355 0-3.524.526-6.642 1.579-9.356 1.094-2.713 2.572-5.002 4.435-6.865a18.335 18.335 0 016.561-4.313c2.511-.972 5.203-1.458 8.079-1.458 1.741 0 3.321.142 4.738.425 1.418.243 2.653.527 3.706.851 1.053.324 1.924.668 2.612 1.033.689.364 1.175.627 1.458.789l-2.248 6.258c-.972-.608-2.369-1.175-4.191-1.701-1.782-.567-3.726-.851-5.832-.851-1.823 0-3.524.324-5.103.972a10.998 10.998 0 00-4.13 2.795c-1.134 1.255-2.025 2.835-2.673 4.738-.648 1.904-.972 4.111-.972 6.622 0 2.227.243 4.273.729 6.136.526 1.863 1.316 3.483 2.369 4.86 1.053 1.336 2.389 2.389 4.009 3.159 1.619.729 3.563 1.093 5.831 1.093 2.714 0 4.921-.263 6.622-.79 1.701-.567 3.017-1.093 3.949-1.579l2.065 6.257c-.486.324-1.154.648-2.004.972-.81.324-1.782.648-2.916.972-1.134.284-2.41.506-3.828.668a32.175 32.175 0 01-4.556.304zm25.218-21.991c0 2.308.284 4.414.851 6.318.567 1.863 1.377 3.462 2.43 4.799a11.6 11.6 0 003.948 3.037c1.539.729 3.281 1.094 5.225 1.094 1.903 0 3.625-.365 5.164-1.094a11.015 11.015 0 003.888-3.037c1.093-1.337 1.923-2.936 2.49-4.799.567-1.904.851-4.01.851-6.318 0-2.309-.284-4.395-.851-6.258-.567-1.903-1.397-3.503-2.49-4.799a10.74 10.74 0 00-3.888-3.098c-1.539-.729-3.261-1.094-5.164-1.094-1.944 0-3.686.365-5.225 1.094a11.292 11.292 0 00-3.948 3.098c-1.053 1.337-1.863 2.936-2.43 4.799-.567 1.863-.851 3.949-.851 6.258zm32.866 0c0 3.604-.547 6.783-1.64 9.537-1.053 2.754-2.511 5.063-4.374 6.926-1.823 1.822-3.969 3.199-6.44 4.131-2.47.931-5.103 1.397-7.897 1.397-2.795 0-5.448-.466-7.959-1.397a18.565 18.565 0 01-6.5-4.131c-1.822-1.863-3.28-4.172-4.374-6.926-1.093-2.754-1.64-5.933-1.64-9.537 0-3.605.547-6.764 1.64-9.477 1.094-2.754 2.572-5.063 4.435-6.926a18.736 18.736 0 016.561-4.192c2.47-.931 5.083-1.397 7.837-1.397 2.754 0 5.366.466 7.836 1.397a17.572 17.572 0 016.44 4.192c1.863 1.863 3.341 4.172 4.435 6.926 1.093 2.713 1.64 5.872 1.64 9.477zm35.009 14.458v6.622h-26.609V266h7.655v35.478h18.954zm21.114 7.533c-2.876 0-5.346-.405-7.412-1.215-2.065-.85-3.786-2.025-5.163-3.523-1.337-1.499-2.329-3.261-2.977-5.286-.648-2.025-.972-4.252-.972-6.682V266h7.715v25.576c0 1.903.203 3.544.608 4.921.445 1.336 1.053 2.43 1.822 3.28a7.581 7.581 0 002.795 1.883c1.093.405 2.308.608 3.645.608 1.336 0 2.551-.203 3.645-.608a6.972 6.972 0 002.794-1.883c.81-.85 1.418-1.944 1.823-3.28.445-1.377.668-3.018.668-4.921V266h7.715v26.305c0 2.43-.344 4.657-1.033 6.682-.648 2.025-1.66 3.787-3.037 5.286-1.337 1.498-3.058 2.673-5.164 3.523-2.106.81-4.597 1.215-7.472 1.215zM312.883 266c.891 1.539 1.883 3.422 2.977 5.65a300.297 300.297 0 013.341 7.047 257.209 257.209 0 013.341 7.472 516.81 516.81 0 013.098 6.986c.932-2.146 1.944-4.475 3.038-6.986a257.209 257.209 0 013.341-7.472 300.297 300.297 0 013.341-7.047c1.094-2.228 2.086-4.111 2.977-5.65h6.926c.364 3.078.708 6.359 1.032 9.842.324 3.442.608 6.986.851 10.631.283 3.604.526 7.249.729 10.935.243 3.645.445 7.209.607 10.692h-7.533c-.162-4.901-.364-9.943-.607-15.127a289.572 289.572 0 00-.972-15.066c-.446.932-.972 2.045-1.58 3.341a275.212 275.212 0 00-1.944 4.253 669.026 669.026 0 00-2.126 4.678 275.115 275.115 0 01-2.065 4.738 671.118 671.118 0 00-1.823 4.253 1523.05 1523.05 0 00-1.458 3.341h-5.71c-.405-.932-.891-2.066-1.458-3.402a156.874 156.874 0 00-1.884-4.253 212.514 212.514 0 00-2.065-4.738 178.29 178.29 0 00-2.066-4.678 572.971 572.971 0 00-1.944-4.192 103.262 103.262 0 00-1.579-3.341c-.446 4.86-.79 9.882-1.033 15.066-.202 5.184-.385 10.226-.547 15.127h-7.533c.162-3.483.345-7.088.547-10.814.243-3.726.486-7.411.729-11.056.284-3.686.587-7.25.911-10.692.324-3.443.669-6.622 1.033-9.538h7.108zm57.213 42.586c-2.228 0-4.475-.081-6.743-.243-2.268-.122-4.253-.405-5.954-.851v-40.884a48.341 48.341 0 012.855-.426 38.145 38.145 0 013.099-.364 83.2 83.2 0 013.098-.182 76.674 76.674 0 012.977-.061c2.551 0 4.92.202 7.107.607 2.187.365 4.071.993 5.65 1.884 1.62.891 2.876 2.065 3.767 3.523.891 1.458 1.336 3.26 1.336 5.407 0 1.984-.486 3.685-1.458 5.103-.931 1.417-2.248 2.551-3.949 3.402 2.552.85 4.435 2.106 5.65 3.766 1.215 1.661 1.823 3.767 1.823 6.318 0 4.334-1.58 7.594-4.739 9.781-3.159 2.147-7.999 3.22-14.519 3.22zm-5.164-19.44v12.818c.851.081 1.762.142 2.734.182a63.77 63.77 0 002.673.061c1.579 0 3.037-.101 4.374-.304 1.377-.202 2.551-.546 3.523-1.032 1.013-.527 1.803-1.215 2.37-2.066.607-.85.911-1.944.911-3.28 0-2.39-.871-4.05-2.612-4.982-1.742-.931-4.152-1.397-7.23-1.397h-6.743zm0-6.014h5.407c2.916 0 5.204-.405 6.865-1.215 1.66-.851 2.49-2.349 2.49-4.496 0-2.025-.87-3.463-2.612-4.313-1.701-.851-3.928-1.276-6.682-1.276-1.175 0-2.228.02-3.159.061-.891.04-1.661.101-2.309.182v11.057zm48.614 25.879c-2.876 0-5.346-.405-7.412-1.215-2.065-.85-3.787-2.025-5.164-3.523-1.336-1.499-2.328-3.261-2.976-5.286-.648-2.025-.972-4.252-.972-6.682V266h7.715v25.576c0 1.903.202 3.544.607 4.921.446 1.336 1.053 2.43 1.823 3.28a7.577 7.577 0 002.794 1.883c1.094.405 2.309.608 3.645.608 1.337 0 2.552-.203 3.645-.608a6.975 6.975 0 002.795-1.883c.81-.85 1.417-1.944 1.822-3.28.446-1.377.669-3.018.669-4.921V266h7.715v26.305c0 2.43-.344 4.657-1.033 6.682-.648 2.025-1.66 3.787-3.037 5.286-1.337 1.498-3.058 2.673-5.164 3.523-2.106.81-4.597 1.215-7.472 1.215zm36.699-6.622c2.754 0 4.759-.465 6.015-1.397 1.255-.931 1.883-2.248 1.883-3.949 0-1.012-.223-1.883-.668-2.612-.405-.729-1.013-1.377-1.823-1.944-.769-.607-1.721-1.154-2.855-1.64a37.139 37.139 0 00-3.888-1.519 65.862 65.862 0 01-4.253-1.701 15.76 15.76 0 01-3.584-2.369 11.458 11.458 0 01-2.491-3.341c-.607-1.296-.911-2.856-.911-4.678 0-3.807 1.316-6.784 3.949-8.93 2.632-2.187 6.217-3.281 10.753-3.281 2.632 0 4.961.304 6.986.911 2.065.567 3.685 1.195 4.86 1.884l-2.369 6.196c-1.377-.769-2.896-1.357-4.557-1.762-1.62-.405-3.3-.607-5.042-.607-2.065 0-3.685.425-4.86 1.276-1.134.85-1.701 2.045-1.701 3.584 0 .931.182 1.741.547 2.43.405.648.952 1.235 1.64 1.762a16.196 16.196 0 002.491 1.458c.972.445 2.025.87 3.159 1.275 1.984.729 3.746 1.479 5.285 2.248 1.58.729 2.896 1.62 3.949 2.673a9.935 9.935 0 012.491 3.645c.567 1.377.85 3.058.85 5.042 0 3.807-1.357 6.764-4.07 8.87-2.673 2.065-6.602 3.098-11.786 3.098-1.741 0-3.341-.121-4.799-.364a28.932 28.932 0 01-3.827-.79 32.994 32.994 0 01-2.855-.972 21.74 21.74 0 01-1.944-.972l2.247-6.257c1.094.607 2.572 1.215 4.435 1.822 1.863.608 4.111.911 6.743.911zm48.384-36.814c6.075 0 10.713 1.114 13.912 3.341 3.24 2.228 4.86 5.63 4.86 10.206 0 5.711-2.815 9.578-8.444 11.603.769.932 1.64 2.066 2.612 3.402a91.173 91.173 0 012.977 4.374 79.846 79.846 0 012.916 4.8 60.593 60.593 0 012.491 4.799h-8.566a80.337 80.337 0 00-2.491-4.374 86.975 86.975 0 00-2.734-4.313 66.587 66.587 0 00-2.673-3.949 80.28 80.28 0 00-2.49-3.341c-.568.04-1.053.06-1.458.06h-4.86V308.1h-7.655v-41.492a38.394 38.394 0 015.953-.79 74.47 74.47 0 015.65-.243zm.547 6.622c-1.62 0-3.119.06-4.495.182v13.608h3.341c1.863 0 3.503-.101 4.921-.304 1.417-.202 2.592-.567 3.523-1.093.972-.527 1.701-1.236 2.187-2.127.486-.891.729-2.025.729-3.402 0-1.296-.243-2.389-.729-3.28s-1.195-1.6-2.126-2.126c-.891-.527-1.964-.891-3.22-1.094-1.255-.243-2.632-.364-4.131-.364zm26.71 35.903V266h27.034v6.5h-19.38v10.389h17.253v6.378H533.54V301.6h20.838v6.5h-28.492zm64.429 0a176.91 176.91 0 00-1.762-4.921c-.608-1.62-1.195-3.28-1.762-4.981h-17.739a183.22 183.22 0 01-1.762 5.042l-1.701 4.86h-7.958a715.202 715.202 0 014.496-12.454 639.376 639.376 0 014.131-10.813 419.266 419.266 0 014.07-9.72 308.641 308.641 0 014.131-9.113h7.229a298.135 298.135 0 018.141 18.833 410.771 410.771 0 014.191 10.813 479.075 479.075 0 014.557 12.454h-8.262zm-12.393-33.959a256.81 256.81 0 00-3.22 7.836 551.716 551.716 0 00-3.706 10.024h13.851a409.777 409.777 0 00-3.766-10.084c-1.215-3.119-2.268-5.711-3.159-7.776zm52.585 27.337v6.622h-26.608V266h7.654v35.478h18.954zM659.465 266v6.622h-12.94V308.1h-7.715v-35.478h-12.94V266h33.595zm21.593 18.65a338.697 338.697 0 005.346-9.234 120.37 120.37 0 004.739-9.416h8.505a364.378 364.378 0 01-7.108 12.818 278.205 278.205 0 01-7.837 12.758V308.1h-7.654v-16.403a324.612 324.612 0 01-7.898-12.879A364.378 364.378 0 01662.043 266h8.991a135.673 135.673 0 004.678 9.416 209.367 209.367 0 005.346 9.234zM357.096 168.978h-54.459c-9.939.022-17.715-6.515-19.403-16.31-.187-1.219-.187-2.437-.187-3.656 0-27.885 0-55.77-.047-83.61 0-6.28 2.296-11.388 7.124-15.372a16681.524 16681.524 0 0154.927-45.46c7.405-6.093 16.919-6.093 24.324 0 18.231 14.95 36.462 29.947 54.693 44.898 4.921 4.03 7.359 9.186 7.359 15.606-.047 27.933 0 55.865-.047 83.798 0 9.795-5.624 17.294-14.67 19.543-1.781.469-3.55.653-5.389.563h-54.225zm0 0h54.225c4.783-4.423 8.998-14.154 8.951-20.669-.187-27.37-.14-54.693-.047-82.063 0-3.609-1.218-6.233-3.983-8.483-17.622-14.482-35.197-29.057-52.819-43.633-4.312-3.562-8.108-3.562-12.466.047-17.669 14.622-35.338 29.245-53.053 43.82-2.484 2.063-3.703 4.453-3.703 7.733.047 27.699.047 55.397.047 83.095 0 5.811 4.265 16.058 8.389 20.153h54.459z" fill="#fff"/><path d="M357.19 155.196h-31.447c-1.031 0-2.109 0-3.14-.281-2.297-.609-4.031-3.046-3.984-5.39.047-2.484 1.875-4.78 4.265-5.389a7.33 7.33 0 011.734-.235c21.652 0 43.352-.047 65.004 0 4.124 0 6.843 3.375 5.858 7.077a5.45 5.45 0 01-4.733 4.077c-1.031.094-2.109.094-3.14.094-10.123.047-20.247.047-30.417.047zm-7.172-95.675h14.06v58.583h-14.06z" fill="#06B8FE"/></svg>