<svg width="169" height="35" viewBox="0 0 169 35" fill="none" xmlns="http://www.w3.org/2000/svg">
<path d="M17.1532 31.996C13.9335 31.996 10.7055 31.996 7.48588 31.996C5.7215 31.9999 4.3411 30.8396 4.0416 29.1008C4.00832 28.8845 4.00832 28.6682 4.00832 28.4519C4.00832 23.5018 4.00832 18.5517 4 13.6099C4 12.4951 4.40766 11.5882 5.26457 10.8811C8.50918 8.18556 11.7621 5.49004 15.015 2.81115C16.3295 1.72962 18.0184 1.72962 19.3329 2.81115C22.5692 5.46508 25.8054 8.12732 29.0417 10.7812C29.9153 11.4967 30.3479 12.4119 30.3479 13.5516C30.3396 18.5101 30.3479 23.4685 30.3396 28.4269C30.3396 30.1657 29.3412 31.4968 27.7356 31.8962C27.4194 31.9794 27.1053 32.0121 26.7788 31.996C23.5675 31.996 20.3645 31.996 17.1532 31.996ZM17.1532 31.996C17.1532 31.996 23.0198 31.996 26.7788 31.996C27.628 31.211 28.3762 29.4835 28.3679 28.3271C28.3346 23.4685 28.3429 18.6182 28.3595 13.7596C28.3595 13.119 28.1432 12.6531 27.6524 12.2538C24.5242 9.68307 21.4044 7.0957 18.2763 4.50833C17.5109 3.87605 16.837 3.87605 16.0633 4.51665C12.9268 7.11234 9.79038 9.70803 6.64561 12.2954C6.20467 12.6615 5.98836 13.0858 5.98836 13.6681C5.99668 18.585 5.99668 23.5018 5.99668 28.4186C5.99668 29.4502 6.75385 31.2691 7.48588 31.996C11.2612 31.996 17.1532 31.996 17.1532 31.996Z" fill="#2C3A55"/>
<path d="M17.1532 31.996C13.9335 31.996 10.7055 31.996 7.48588 31.996C5.7215 31.9999 4.3411 30.8396 4.0416 29.1008C4.00832 28.8845 4.00832 28.6682 4.00832 28.4519C4.00832 23.5018 4.00832 18.5517 4 13.6099C4 12.4951 4.40766 11.5882 5.26457 10.8811C8.50918 8.18556 11.7621 5.49004 15.015 2.81115C16.3295 1.72962 18.0184 1.72962 19.3329 2.81115C22.5692 5.46508 25.8054 8.12732 29.0417 10.7812C29.9153 11.4967 30.3479 12.4119 30.3479 13.5516C30.3396 18.5101 30.3479 23.4685 30.3396 28.4269C30.3396 30.1657 29.3412 31.4968 27.7356 31.8962C27.4194 31.9794 27.1053 32.0121 26.7788 31.996C23.5675 31.996 20.3645 31.996 17.1532 31.996ZM17.1532 31.996C17.1532 31.996 23.0198 31.996 26.7788 31.996C27.628 31.211 28.3762 29.4835 28.3679 28.3271C28.3346 23.4685 28.3429 18.6182 28.3595 13.7596C28.3595 13.119 28.1432 12.6531 27.6524 12.2538C24.5242 9.68307 21.4044 7.0957 18.2763 4.50833C17.5109 3.87605 16.837 3.87605 16.0633 4.51665C12.9268 7.11234 9.79038 9.70803 6.64561 12.2954C6.20467 12.6615 5.98836 13.0858 5.98836 13.6681C5.99668 18.585 5.99668 23.5018 5.99668 28.4186C5.99668 29.4502 6.75385 31.2691 7.48588 31.996C11.2612 31.996 17.1532 31.996 17.1532 31.996Z" fill="white"/>
<path d="M17.1532 31.996C13.9335 31.996 10.7055 31.996 7.48588 31.996C5.7215 31.9999 4.3411 30.8396 4.0416 29.1008C4.00832 28.8845 4.00832 28.6682 4.00832 28.4519C4.00832 23.5018 4.00832 18.5517 4 13.6099C4 12.4951 4.40766 11.5882 5.26457 10.8811C8.50918 8.18556 11.7621 5.49004 15.015 2.81115C16.3295 1.72962 18.0184 1.72962 19.3329 2.81115C22.5692 5.46508 25.8054 8.12732 29.0417 10.7812C29.9153 11.4967 30.3479 12.4119 30.3479 13.5516C30.3396 18.5101 30.3479 23.4685 30.3396 28.4269C30.3396 30.1657 29.3412 31.4968 27.7356 31.8962C27.4194 31.9794 27.1053 32.0121 26.7788 31.996C23.5675 31.996 20.3645 31.996 17.1532 31.996ZM17.1532 31.996C17.1532 31.996 23.0198 31.996 26.7788 31.996C27.628 31.211 28.3762 29.4835 28.3679 28.3271C28.3346 23.4685 28.3429 18.6182 28.3595 13.7596C28.3595 13.119 28.1432 12.6531 27.6524 12.2538C24.5242 9.68307 21.4044 7.0957 18.2763 4.50833C17.5109 3.87605 16.837 3.87605 16.0633 4.51665C12.9268 7.11234 9.79038 9.70803 6.64561 12.2954C6.20467 12.6615 5.98836 13.0858 5.98836 13.6681C5.99668 18.585 5.99668 23.5018 5.99668 28.4186C5.99668 29.4502 6.75385 31.2691 7.48588 31.996C11.2612 31.996 17.1532 31.996 17.1532 31.996Z" fill="#2C3A55"/>
<path d="M17.1699 29.5495C15.3063 29.5495 13.4511 29.5495 11.5875 29.5495C11.4045 29.5495 11.2131 29.5495 11.0301 29.4996C10.6224 29.3914 10.3146 28.9588 10.3229 28.5428C10.3312 28.1019 10.6557 27.6942 11.08 27.5861C11.1798 27.5611 11.288 27.5445 11.3878 27.5445C15.2314 27.5445 19.0834 27.5361 22.927 27.5445C23.6591 27.5445 24.1416 28.1435 23.9669 28.8007C23.8671 29.1917 23.5343 29.4829 23.1267 29.5245C22.9436 29.5412 22.7523 29.5412 22.5692 29.5412C20.7722 29.5495 18.9752 29.5495 17.1699 29.5495Z" fill="#06B8FE"/>
<path d="M17.1699 29.5495C15.3063 29.5495 13.4511 29.5495 11.5875 29.5495C11.4045 29.5495 11.2131 29.5495 11.0301 29.4996C10.6224 29.3914 10.3146 28.9588 10.3229 28.5428C10.3312 28.1019 10.6557 27.6942 11.08 27.5861C11.1798 27.5611 11.288 27.5445 11.3878 27.5445C15.2314 27.5445 19.0834 27.5361 22.927 27.5445C23.6591 27.5445 24.1416 28.1435 23.9669 28.8007C23.8671 29.1917 23.5343 29.4829 23.1267 29.5245C22.9436 29.5412 22.7523 29.5412 22.5692 29.5412C20.7722 29.5495 18.9752 29.5495 17.1699 29.5495Z" fill="#2C3A55"/>
<path d="M17.1699 29.5495C15.3063 29.5495 13.4511 29.5495 11.5875 29.5495C11.4045 29.5495 11.2131 29.5495 11.0301 29.4996C10.6224 29.3914 10.3146 28.9588 10.3229 28.5428C10.3312 28.1019 10.6557 27.6942 11.08 27.5861C11.1798 27.5611 11.288 27.5445 11.3878 27.5445C15.2314 27.5445 19.0834 27.5361 22.927 27.5445C23.6591 27.5445 24.1416 28.1435 23.9669 28.8007C23.8671 29.1917 23.5343 29.4829 23.1267 29.5245C22.9436 29.5412 22.7523 29.5412 22.5692 29.5412C20.7722 29.5495 18.9752 29.5495 17.1699 29.5495Z" fill="#00A3FF"/>
<rect x="15.897" y="12.5659" width="2.49585" height="10.3994" fill="#06B8FE"/>
<rect x="15.897" y="12.5659" width="2.49585" height="10.3994" fill="#2C3A55"/>
<rect x="15.897" y="12.5659" width="2.49585" height="10.3994" fill="#00A3FF"/>
<path d="M41.8163 9C41.8163 9.52486 41.881 10.0037 42.0104 10.4365C42.1398 10.86 42.3247 11.2238 42.565 11.5276C42.8146 11.8223 43.115 12.0525 43.4663 12.2182C43.8175 12.384 44.215 12.4668 44.6587 12.4668C45.0931 12.4668 45.4859 12.384 45.8372 12.2182C46.1884 12.0525 46.4842 11.8223 46.7246 11.5276C46.9741 11.2238 47.1636 10.86 47.293 10.4365C47.4224 10.0037 47.4871 9.52486 47.4871 9C47.4871 8.47514 47.4224 8.00092 47.293 7.57735C47.1636 7.14457 46.9741 6.78085 46.7246 6.48619C46.4842 6.18232 46.1884 5.94751 45.8372 5.78177C45.4859 5.61602 45.0931 5.53315 44.6587 5.53315C44.215 5.53315 43.8175 5.61602 43.4663 5.78177C43.115 5.94751 42.8146 6.18232 42.565 6.48619C42.3247 6.79005 42.1398 7.15377 42.0104 7.57735C41.881 8.00092 41.8163 8.47514 41.8163 9ZM49.3173 9C49.3173 9.81952 49.1925 10.5424 48.943 11.1685C48.7027 11.7947 48.3699 12.3195 47.9447 12.7431C47.5287 13.1575 47.0388 13.4705 46.475 13.6823C45.9111 13.8941 45.3103 14 44.6725 14C44.0347 14 43.4293 13.8941 42.8562 13.6823C42.2924 13.4705 41.7978 13.1575 41.3726 12.7431C40.9567 12.3195 40.6239 11.7947 40.3744 11.1685C40.1248 10.5424 40 9.81952 40 9C40 8.18048 40.1248 7.46225 40.3744 6.8453C40.6239 6.21915 40.9613 5.69429 41.3865 5.27072C41.8209 4.84715 42.3201 4.52947 42.8839 4.31768C43.4478 4.10589 44.044 4 44.6725 4C45.3011 4 45.8973 4.10589 46.4611 4.31768C47.025 4.52947 47.5149 4.84715 47.9308 5.27072C48.356 5.69429 48.6934 6.21915 48.943 6.8453C49.1925 7.46225 49.3173 8.18048 49.3173 9ZM57.7089 13.7928C57.3946 13.268 57.0433 12.7063 56.6551 12.1077C56.2669 11.5 55.8648 10.8923 55.4489 10.2845C55.0329 9.66759 54.6077 9.07366 54.1733 8.50276C53.7481 7.92265 53.3414 7.40239 52.9531 6.94199V13.7928H51.2339V4.22099H52.662C53.0317 4.60773 53.4292 5.06814 53.8544 5.60221C54.2796 6.12707 54.7048 6.67495 55.13 7.24586C55.5644 7.81676 55.9804 8.39226 56.3778 8.97237C56.7845 9.54328 57.145 10.0773 57.4593 10.5746V4.22099H59.1924V13.7928H57.7089ZM61.4973 13.7928V4.22099H67.6672V5.69889H63.2443V8.06077H67.182V9.51105H63.2443V12.3149H68V13.7928H61.4973Z" fill="#00A3FF"/>
<path d="M41.8163 9C41.8163 9.52486 41.881 10.0037 42.0104 10.4365C42.1398 10.86 42.3247 11.2238 42.565 11.5276C42.8146 11.8223 43.115 12.0525 43.4663 12.2182C43.8175 12.384 44.215 12.4668 44.6587 12.4668C45.0931 12.4668 45.4859 12.384 45.8372 12.2182C46.1884 12.0525 46.4842 11.8223 46.7246 11.5276C46.9741 11.2238 47.1636 10.86 47.293 10.4365C47.4224 10.0037 47.4871 9.52486 47.4871 9C47.4871 8.47514 47.4224 8.00092 47.293 7.57735C47.1636 7.14457 46.9741 6.78085 46.7246 6.48619C46.4842 6.18232 46.1884 5.94751 45.8372 5.78177C45.4859 5.61602 45.0931 5.53315 44.6587 5.53315C44.215 5.53315 43.8175 5.61602 43.4663 5.78177C43.115 5.94751 42.8146 6.18232 42.565 6.48619C42.3247 6.79005 42.1398 7.15377 42.0104 7.57735C41.881 8.00092 41.8163 8.47514 41.8163 9ZM49.3173 9C49.3173 9.81952 49.1925 10.5424 48.943 11.1685C48.7027 11.7947 48.3699 12.3195 47.9447 12.7431C47.5287 13.1575 47.0388 13.4705 46.475 13.6823C45.9111 13.8941 45.3103 14 44.6725 14C44.0347 14 43.4293 13.8941 42.8562 13.6823C42.2924 13.4705 41.7978 13.1575 41.3726 12.7431C40.9567 12.3195 40.6239 11.7947 40.3744 11.1685C40.1248 10.5424 40 9.81952 40 9C40 8.18048 40.1248 7.46225 40.3744 6.8453C40.6239 6.21915 40.9613 5.69429 41.3865 5.27072C41.8209 4.84715 42.3201 4.52947 42.8839 4.31768C43.4478 4.10589 44.044 4 44.6725 4C45.3011 4 45.8973 4.10589 46.4611 4.31768C47.025 4.52947 47.5149 4.84715 47.9308 5.27072C48.356 5.69429 48.6934 6.21915 48.943 6.8453C49.1925 7.46225 49.3173 8.18048 49.3173 9ZM57.7089 13.7928C57.3946 13.268 57.0433 12.7063 56.6551 12.1077C56.2669 11.5 55.8648 10.8923 55.4489 10.2845C55.0329 9.66759 54.6077 9.07366 54.1733 8.50276C53.7481 7.92265 53.3414 7.40239 52.9531 6.94199V13.7928H51.2339V4.22099H52.662C53.0317 4.60773 53.4292 5.06814 53.8544 5.60221C54.2796 6.12707 54.7048 6.67495 55.13 7.24586C55.5644 7.81676 55.9804 8.39226 56.3778 8.97237C56.7845 9.54328 57.145 10.0773 57.4593 10.5746V4.22099H59.1924V13.7928H57.7089ZM61.4973 13.7928V4.22099H67.6672V5.69889H63.2443V8.06077H67.182V9.51105H63.2443V12.3149H68V13.7928H61.4973Z" fill="#2C3A55"/>
<path d="M41.8163 9C41.8163 9.52486 41.881 10.0037 42.0104 10.4365C42.1398 10.86 42.3247 11.2238 42.565 11.5276C42.8146 11.8223 43.115 12.0525 43.4663 12.2182C43.8175 12.384 44.215 12.4668 44.6587 12.4668C45.0931 12.4668 45.4859 12.384 45.8372 12.2182C46.1884 12.0525 46.4842 11.8223 46.7246 11.5276C46.9741 11.2238 47.1636 10.86 47.293 10.4365C47.4224 10.0037 47.4871 9.52486 47.4871 9C47.4871 8.47514 47.4224 8.00092 47.293 7.57735C47.1636 7.14457 46.9741 6.78085 46.7246 6.48619C46.4842 6.18232 46.1884 5.94751 45.8372 5.78177C45.4859 5.61602 45.0931 5.53315 44.6587 5.53315C44.215 5.53315 43.8175 5.61602 43.4663 5.78177C43.115 5.94751 42.8146 6.18232 42.565 6.48619C42.3247 6.79005 42.1398 7.15377 42.0104 7.57735C41.881 8.00092 41.8163 8.47514 41.8163 9ZM49.3173 9C49.3173 9.81952 49.1925 10.5424 48.943 11.1685C48.7027 11.7947 48.3699 12.3195 47.9447 12.7431C47.5287 13.1575 47.0388 13.4705 46.475 13.6823C45.9111 13.8941 45.3103 14 44.6725 14C44.0347 14 43.4293 13.8941 42.8562 13.6823C42.2924 13.4705 41.7978 13.1575 41.3726 12.7431C40.9567 12.3195 40.6239 11.7947 40.3744 11.1685C40.1248 10.5424 40 9.81952 40 9C40 8.18048 40.1248 7.46225 40.3744 6.8453C40.6239 6.21915 40.9613 5.69429 41.3865 5.27072C41.8209 4.84715 42.3201 4.52947 42.8839 4.31768C43.4478 4.10589 44.044 4 44.6725 4C45.3011 4 45.8973 4.10589 46.4611 4.31768C47.025 4.52947 47.5149 4.84715 47.9308 5.27072C48.356 5.69429 48.6934 6.21915 48.943 6.8453C49.1925 7.46225 49.3173 8.18048 49.3173 9ZM57.7089 13.7928C57.3946 13.268 57.0433 12.7063 56.6551 12.1077C56.2669 11.5 55.8648 10.8923 55.4489 10.2845C55.0329 9.66759 54.6077 9.07366 54.1733 8.50276C53.7481 7.92265 53.3414 7.40239 52.9531 6.94199V13.7928H51.2339V4.22099H52.662C53.0317 4.60773 53.4292 5.06814 53.8544 5.60221C54.2796 6.12707 54.7048 6.67495 55.13 7.24586C55.5644 7.81676 55.9804 8.39226 56.3778 8.97237C56.7845 9.54328 57.145 10.0773 57.4593 10.5746V4.22099H59.1924V13.7928H57.7089ZM61.4973 13.7928V4.22099H67.6672V5.69889H63.2443V8.06077H67.182V9.51105H63.2443V12.3149H68V13.7928H61.4973Z" fill="#00A3FF"/>
<path d="M44.6996 30C43.9679 30 43.3115 29.8895 42.7298 29.6685C42.1482 29.4475 41.6557 29.1252 41.2524 28.7017C40.849 28.2689 40.5394 27.744 40.3236 27.1271C40.1079 26.5101 40 25.8011 40 25C40 24.1989 40.122 23.4899 40.3659 22.8729C40.6191 22.256 40.9615 21.7357 41.3931 21.3122C41.8246 20.8794 42.3312 20.5525 42.9128 20.3315C43.4944 20.1105 44.118 20 44.784 20C45.1874 20 45.5533 20.0322 45.8816 20.0967C46.2099 20.1519 46.4961 20.2164 46.74 20.2901C46.9839 20.3637 47.1856 20.442 47.345 20.5249C47.5045 20.6077 47.6171 20.6676 47.6827 20.7044L47.1621 22.1271C46.937 21.989 46.6133 21.86 46.1912 21.7403C45.7784 21.6114 45.3281 21.547 44.8403 21.547C44.4182 21.547 44.0242 21.6206 43.6583 21.768C43.2927 21.9061 42.9738 22.1179 42.7017 22.4033C42.439 22.6888 42.2327 23.0479 42.0826 23.4807C41.9325 23.9134 41.8574 24.4153 41.8574 24.9862C41.8574 25.4926 41.9137 25.9576 42.0263 26.3812C42.1482 26.8048 42.3312 27.1731 42.5751 27.4862C42.819 27.7901 43.1285 28.0295 43.5038 28.2044C43.8788 28.3702 44.3291 28.453 44.8544 28.453C45.4829 28.453 45.9942 28.3932 46.3882 28.2735C46.7822 28.1446 47.087 28.0249 47.3028 27.9144L47.7812 29.337C47.6687 29.4107 47.5139 29.4843 47.3169 29.558C47.1293 29.6317 46.9041 29.7053 46.6415 29.779C46.3788 29.8435 46.0833 29.8941 45.755 29.9309C45.4266 29.977 45.0748 30 44.6996 30ZM50.5408 25C50.5408 25.5249 50.6065 26.0037 50.7378 26.4365C50.8691 26.86 51.0567 27.2238 51.3006 27.5276C51.5539 27.8223 51.8588 28.0525 52.2153 28.2182C52.5718 28.384 52.9751 28.4668 53.4254 28.4668C53.8663 28.4668 54.265 28.384 54.6215 28.2182C54.978 28.0525 55.2782 27.8223 55.5221 27.5276C55.7754 27.2238 55.9677 26.86 56.099 26.4365C56.2303 26.0037 56.296 25.5249 56.296 25C56.296 24.4751 56.2303 24.0009 56.099 23.5773C55.9677 23.1446 55.7754 22.7808 55.5221 22.4862C55.2782 22.1823 54.978 21.9475 54.6215 21.7818C54.265 21.616 53.8663 21.5331 53.4254 21.5331C52.9751 21.5331 52.5718 21.616 52.2153 21.7818C51.8588 21.9475 51.5539 22.1823 51.3006 22.4862C51.0567 22.7901 50.8691 23.1538 50.7378 23.5773C50.6065 24.0009 50.5408 24.4751 50.5408 25ZM58.1534 25C58.1534 25.8195 58.0268 26.5424 57.7735 27.1685C57.5296 27.7947 57.1919 28.3195 56.7604 28.7431C56.3382 29.1575 55.841 29.4705 55.2688 29.6823C54.6965 29.8941 54.0868 30 53.4395 30C52.7922 30 52.1778 29.8941 51.5962 29.6823C51.0239 29.4705 50.522 29.1575 50.0905 28.7431C49.6684 28.3195 49.3307 27.7947 49.0774 27.1685C48.8241 26.5424 48.6974 25.8195 48.6974 25C48.6974 24.1805 48.8241 23.4622 49.0774 22.8453C49.3307 22.2192 49.6731 21.6943 50.1046 21.2707C50.5455 20.8471 51.0521 20.5295 51.6243 20.3177C52.1965 20.1059 52.8016 20 53.4395 20C54.0774 20 54.6825 20.1059 55.2547 20.3177C55.827 20.5295 56.3241 20.8471 56.7463 21.2707C57.1778 21.6943 57.5202 22.2192 57.7735 22.8453C58.0268 23.4622 58.1534 24.1805 58.1534 25ZM66.2624 28.2873V29.7928H60.0992V20.221H61.8722V28.2873H66.2624ZM71.153 30C70.487 30 69.9148 29.9079 69.4363 29.7238C68.9579 29.5304 68.5592 29.2634 68.2403 28.9227C67.9307 28.582 67.7009 28.1814 67.5508 27.721C67.4007 27.2606 67.3256 26.7541 67.3256 26.2017V20.221H69.1127V26.0359C69.1127 26.4687 69.1596 26.8416 69.2534 27.1547C69.3566 27.4586 69.4973 27.7072 69.6755 27.9006C69.8632 28.0939 70.0789 28.2366 70.3228 28.3287C70.5761 28.4208 70.8575 28.4668 71.1671 28.4668C71.4767 28.4668 71.7581 28.4208 72.0114 28.3287C72.2647 28.2366 72.4804 28.0939 72.6587 27.9006C72.8463 27.7072 72.987 27.4586 73.0808 27.1547C73.184 26.8416 73.2356 26.4687 73.2356 26.0359V20.221H75.0227V26.2017C75.0227 26.7541 74.9429 27.2606 74.7835 27.721C74.6334 28.1814 74.3988 28.582 74.0799 28.9227C73.7703 29.2634 73.3716 29.5304 72.8838 29.7238C72.396 29.9079 71.8191 30 71.153 30ZM79.4145 20.221C79.6209 20.5709 79.8507 20.9991 80.104 21.5055C80.3573 22.012 80.6153 22.546 80.8779 23.1077C81.1406 23.6602 81.3986 24.2265 81.6519 24.8066C81.9145 25.3775 82.1537 25.907 82.3695 26.395C82.5853 25.907 82.8198 25.3775 83.0731 24.8066C83.3264 24.2265 83.5843 23.6602 83.847 23.1077C84.1097 22.546 84.3676 22.012 84.6209 21.5055C84.8742 20.9991 85.104 20.5709 85.3104 20.221H86.9146C86.999 20.9208 87.0787 21.6667 87.1538 22.4586C87.2288 23.2413 87.2945 24.047 87.3508 24.8757C87.4164 25.6952 87.4727 26.5239 87.5196 27.3619C87.5759 28.1906 87.6228 29.0009 87.6603 29.7928H85.9155C85.878 28.6786 85.8311 27.5322 85.7748 26.3536C85.7279 25.175 85.6528 24.0331 85.5496 22.9282C85.4464 23.14 85.3245 23.3932 85.1838 23.6878C85.0431 23.9825 84.893 24.3048 84.7335 24.6547C84.574 24.9954 84.4098 25.3499 84.241 25.7182C84.0815 26.0866 83.922 26.4457 83.7626 26.7956C83.6125 27.1363 83.4718 27.4586 83.3404 27.7624C83.2091 28.0571 83.0965 28.3103 83.0027 28.5221H81.68C81.5862 28.3103 81.4736 28.0525 81.3423 27.7486C81.211 27.4448 81.0656 27.1225 80.9061 26.7818C80.756 26.4319 80.5965 26.0727 80.4277 25.7044C80.2682 25.3361 80.1087 24.9816 79.9492 24.6409C79.7897 24.3002 79.6397 23.9825 79.4989 23.6878C79.3582 23.384 79.2363 23.1308 79.1331 22.9282C79.0299 24.0331 78.9502 25.175 78.8939 26.3536C78.847 27.5322 78.8047 28.6786 78.7672 29.7928H77.0224C77.0599 29.0009 77.1021 28.1814 77.149 27.3343C77.2053 26.4871 77.2616 25.6492 77.3179 24.8204C77.3835 23.9825 77.4539 23.1722 77.5289 22.3895C77.604 21.6068 77.6837 20.884 77.7682 20.221H79.4145ZM92.6666 29.9033C92.1507 29.9033 91.63 29.8849 91.1047 29.8481C90.5794 29.8204 90.1197 29.756 89.7257 29.6547V20.3591C89.9321 20.3223 90.1525 20.2901 90.3871 20.2624C90.6216 20.2256 90.8608 20.198 91.1047 20.1796C91.3486 20.1611 91.5878 20.1473 91.8223 20.1381C92.0662 20.1289 92.2961 20.1243 92.5118 20.1243C93.1028 20.1243 93.6516 20.1703 94.1582 20.2624C94.6648 20.3453 95.101 20.488 95.4668 20.6906C95.8421 20.8932 96.1329 21.1602 96.3393 21.4917C96.5456 21.8232 96.6488 22.233 96.6488 22.721C96.6488 23.1722 96.5363 23.5589 96.3111 23.8812C96.0954 24.2035 95.7905 24.4613 95.3965 24.6547C95.9875 24.8481 96.4237 25.1335 96.7051 25.511C96.9865 25.8886 97.1273 26.3674 97.1273 26.9475C97.1273 27.9328 96.7614 28.674 96.0297 29.1713C95.298 29.6593 94.177 29.9033 92.6666 29.9033ZM91.4706 25.4834V28.3978C91.6676 28.4162 91.8786 28.43 92.1038 28.4392C92.3289 28.4484 92.5353 28.453 92.7229 28.453C93.0888 28.453 93.4265 28.43 93.7361 28.384C94.055 28.3379 94.327 28.2597 94.5522 28.1492C94.7867 28.0295 94.9696 27.8729 95.101 27.6796C95.2417 27.4862 95.312 27.2376 95.312 26.9337C95.312 26.3904 95.1104 26.0129 94.707 25.8011C94.3036 25.5893 93.7454 25.4834 93.0325 25.4834H91.4706ZM91.4706 24.116H92.7229C93.3983 24.116 93.9284 24.0239 94.313 23.8398C94.6976 23.6464 94.8899 23.3057 94.8899 22.8177C94.8899 22.3573 94.6882 22.0304 94.2848 21.837C93.8908 21.6436 93.3749 21.547 92.737 21.547C92.4649 21.547 92.221 21.5516 92.0053 21.5608C91.7989 21.57 91.6206 21.5838 91.4706 21.6022V24.116ZM102.731 30C102.065 30 101.493 29.9079 101.014 29.7238C100.536 29.5304 100.137 29.2634 99.818 28.9227C99.5084 28.582 99.2786 28.1814 99.1285 27.721C98.9784 27.2606 98.9034 26.7541 98.9034 26.2017V20.221H100.69V26.0359C100.69 26.4687 100.737 26.8416 100.831 27.1547C100.934 27.4586 101.075 27.7072 101.253 27.9006C101.441 28.0939 101.657 28.2366 101.901 28.3287C102.154 28.4208 102.435 28.4668 102.745 28.4668C103.054 28.4668 103.336 28.4208 103.589 28.3287C103.842 28.2366 104.058 28.0939 104.236 27.9006C104.424 27.7072 104.565 27.4586 104.659 27.1547C104.762 26.8416 104.813 26.4687 104.813 26.0359V20.221H106.6V26.2017C106.6 26.7541 106.521 27.2606 106.361 27.721C106.211 28.1814 105.977 28.582 105.658 28.9227C105.348 29.2634 104.949 29.5304 104.462 29.7238C103.974 29.9079 103.397 30 102.731 30ZM111.231 28.4945C111.869 28.4945 112.334 28.3886 112.625 28.1768C112.915 27.965 113.061 27.6657 113.061 27.279C113.061 27.0488 113.009 26.8508 112.906 26.6851C112.812 26.5193 112.671 26.372 112.484 26.2431C112.306 26.105 112.085 25.9807 111.822 25.8702C111.56 25.7505 111.26 25.6354 110.922 25.5249C110.584 25.4052 110.256 25.2762 109.937 25.1381C109.627 24.9908 109.351 24.8112 109.107 24.5994C108.872 24.3877 108.68 24.1344 108.53 23.8398C108.389 23.5451 108.319 23.1906 108.319 22.7762C108.319 21.9107 108.624 21.2339 109.233 20.7459C109.843 20.2486 110.673 20 111.724 20C112.334 20 112.873 20.0691 113.342 20.2072C113.821 20.3361 114.196 20.4788 114.468 20.6354L113.919 22.0442C113.6 21.8692 113.248 21.7357 112.864 21.6436C112.489 21.5516 112.099 21.5055 111.696 21.5055C111.217 21.5055 110.842 21.6022 110.57 21.7956C110.307 21.9889 110.176 22.2606 110.176 22.6105C110.176 22.8223 110.218 23.0064 110.303 23.163C110.397 23.3103 110.523 23.4438 110.683 23.5635C110.852 23.6832 111.044 23.7937 111.26 23.895C111.485 23.9963 111.729 24.093 111.991 24.1851C112.451 24.3508 112.859 24.5212 113.216 24.6961C113.581 24.8619 113.886 25.0645 114.13 25.3039C114.383 25.5341 114.576 25.8103 114.707 26.1326C114.838 26.4457 114.904 26.8278 114.904 27.279C114.904 28.1446 114.59 28.8168 113.961 29.2956C113.342 29.7652 112.432 30 111.231 30C110.828 30 110.458 29.9724 110.12 29.9171C109.792 29.8711 109.496 29.8112 109.233 29.7376C108.98 29.6639 108.76 29.5902 108.572 29.5166C108.384 29.4337 108.234 29.36 108.122 29.2956L108.642 27.8729C108.896 28.011 109.238 28.1492 109.67 28.2873C110.101 28.4254 110.622 28.4945 111.231 28.4945ZM122.439 20.1243C123.846 20.1243 124.92 20.3775 125.661 20.884C126.411 21.3904 126.787 22.1639 126.787 23.2044C126.787 24.5028 126.135 25.3821 124.831 25.8425C125.009 26.0543 125.211 26.3122 125.436 26.616C125.661 26.9199 125.891 27.2514 126.125 27.6105C126.36 27.9604 126.585 28.3241 126.801 28.7017C127.016 29.07 127.209 29.4337 127.378 29.7928H125.394C125.215 29.4613 125.023 29.1298 124.817 28.7983C124.61 28.4576 124.399 28.1308 124.183 27.8177C123.977 27.4954 123.771 27.1961 123.564 26.9199C123.358 26.6344 123.166 26.3812 122.987 26.1602C122.856 26.1694 122.743 26.174 122.65 26.174C122.556 26.174 122.467 26.174 122.382 26.174H121.524V29.7928H119.751V20.3591C120.182 20.267 120.642 20.2072 121.13 20.1796C121.618 20.1427 122.054 20.1243 122.439 20.1243ZM122.565 21.6298C122.19 21.6298 121.843 21.6436 121.524 21.6713V24.7652H122.298C122.729 24.7652 123.109 24.7422 123.438 24.6961C123.766 24.6501 124.038 24.5672 124.254 24.4475C124.479 24.3278 124.648 24.1667 124.76 23.9641C124.873 23.7615 124.929 23.5037 124.929 23.1906C124.929 22.8959 124.873 22.6473 124.76 22.4448C124.648 22.2422 124.484 22.081 124.268 21.9613C124.061 21.8416 123.813 21.7587 123.522 21.7127C123.231 21.6575 122.912 21.6298 122.565 21.6298ZM128.752 29.7928V20.221H135.014V21.6989H130.525V24.0608H134.521V25.511H130.525V28.3149H135.351V29.7928H128.752ZM143.675 29.7928C143.544 29.4153 143.408 29.0424 143.267 28.674C143.127 28.3057 142.991 27.9282 142.859 27.5414H138.75C138.619 27.9282 138.483 28.3103 138.342 28.6878C138.211 29.0562 138.08 29.4245 137.948 29.7928H136.105C136.471 28.7707 136.818 27.8269 137.146 26.9613C137.475 26.0958 137.794 25.2762 138.103 24.5028C138.422 23.7293 138.736 22.9926 139.046 22.2928C139.355 21.593 139.674 20.9024 140.003 20.221H141.677C142.006 20.9024 142.325 21.593 142.634 22.2928C142.944 22.9926 143.253 23.7293 143.563 24.5028C143.882 25.2762 144.205 26.0958 144.534 26.9613C144.871 27.8269 145.223 28.7707 145.589 29.7928H143.675ZM140.805 22.0718C140.589 22.5599 140.34 23.1538 140.059 23.8536C139.787 24.5534 139.501 25.3131 139.201 26.1326H142.409C142.109 25.3131 141.818 24.5488 141.537 23.8398C141.255 23.1308 141.011 22.5414 140.805 22.0718ZM152.985 28.2873V29.7928H146.822V20.221H148.595V28.2873H152.985ZM159.693 20.221V21.7265H156.695V29.7928H154.908V21.7265H151.911V20.221H159.693ZM164.694 24.4613C165.116 23.7707 165.529 23.0709 165.932 22.3619C166.336 21.6529 166.702 20.9392 167.03 20.221H169C168.475 21.1971 167.926 22.1685 167.354 23.1354C166.791 24.093 166.186 25.0599 165.538 26.0359V29.7928H163.765V26.0635C163.118 25.0783 162.508 24.1022 161.936 23.1354C161.364 22.1685 160.815 21.1971 160.29 20.221H162.372C162.701 20.9392 163.062 21.6529 163.456 22.3619C163.85 23.0709 164.263 23.7707 164.694 24.4613Z" fill="white"/>
<path d="M44.6996 30C43.9679 30 43.3115 29.8895 42.7298 29.6685C42.1482 29.4475 41.6557 29.1252 41.2524 28.7017C40.849 28.2689 40.5394 27.744 40.3236 27.1271C40.1079 26.5101 40 25.8011 40 25C40 24.1989 40.122 23.4899 40.3659 22.8729C40.6191 22.256 40.9615 21.7357 41.3931 21.3122C41.8246 20.8794 42.3312 20.5525 42.9128 20.3315C43.4944 20.1105 44.118 20 44.784 20C45.1874 20 45.5533 20.0322 45.8816 20.0967C46.2099 20.1519 46.4961 20.2164 46.74 20.2901C46.9839 20.3637 47.1856 20.442 47.345 20.5249C47.5045 20.6077 47.6171 20.6676 47.6827 20.7044L47.1621 22.1271C46.937 21.989 46.6133 21.86 46.1912 21.7403C45.7784 21.6114 45.3281 21.547 44.8403 21.547C44.4182 21.547 44.0242 21.6206 43.6583 21.768C43.2927 21.9061 42.9738 22.1179 42.7017 22.4033C42.439 22.6888 42.2327 23.0479 42.0826 23.4807C41.9325 23.9134 41.8574 24.4153 41.8574 24.9862C41.8574 25.4926 41.9137 25.9576 42.0263 26.3812C42.1482 26.8048 42.3312 27.1731 42.5751 27.4862C42.819 27.7901 43.1285 28.0295 43.5038 28.2044C43.8788 28.3702 44.3291 28.453 44.8544 28.453C45.4829 28.453 45.9942 28.3932 46.3882 28.2735C46.7822 28.1446 47.087 28.0249 47.3028 27.9144L47.7812 29.337C47.6687 29.4107 47.5139 29.4843 47.3169 29.558C47.1293 29.6317 46.9041 29.7053 46.6415 29.779C46.3788 29.8435 46.0833 29.8941 45.755 29.9309C45.4266 29.977 45.0748 30 44.6996 30ZM50.5408 25C50.5408 25.5249 50.6065 26.0037 50.7378 26.4365C50.8691 26.86 51.0567 27.2238 51.3006 27.5276C51.5539 27.8223 51.8588 28.0525 52.2153 28.2182C52.5718 28.384 52.9751 28.4668 53.4254 28.4668C53.8663 28.4668 54.265 28.384 54.6215 28.2182C54.978 28.0525 55.2782 27.8223 55.5221 27.5276C55.7754 27.2238 55.9677 26.86 56.099 26.4365C56.2303 26.0037 56.296 25.5249 56.296 25C56.296 24.4751 56.2303 24.0009 56.099 23.5773C55.9677 23.1446 55.7754 22.7808 55.5221 22.4862C55.2782 22.1823 54.978 21.9475 54.6215 21.7818C54.265 21.616 53.8663 21.5331 53.4254 21.5331C52.9751 21.5331 52.5718 21.616 52.2153 21.7818C51.8588 21.9475 51.5539 22.1823 51.3006 22.4862C51.0567 22.7901 50.8691 23.1538 50.7378 23.5773C50.6065 24.0009 50.5408 24.4751 50.5408 25ZM58.1534 25C58.1534 25.8195 58.0268 26.5424 57.7735 27.1685C57.5296 27.7947 57.1919 28.3195 56.7604 28.7431C56.3382 29.1575 55.841 29.4705 55.2688 29.6823C54.6965 29.8941 54.0868 30 53.4395 30C52.7922 30 52.1778 29.8941 51.5962 29.6823C51.0239 29.4705 50.522 29.1575 50.0905 28.7431C49.6684 28.3195 49.3307 27.7947 49.0774 27.1685C48.8241 26.5424 48.6974 25.8195 48.6974 25C48.6974 24.1805 48.8241 23.4622 49.0774 22.8453C49.3307 22.2192 49.6731 21.6943 50.1046 21.2707C50.5455 20.8471 51.0521 20.5295 51.6243 20.3177C52.1965 20.1059 52.8016 20 53.4395 20C54.0774 20 54.6825 20.1059 55.2547 20.3177C55.827 20.5295 56.3241 20.8471 56.7463 21.2707C57.1778 21.6943 57.5202 22.2192 57.7735 22.8453C58.0268 23.4622 58.1534 24.1805 58.1534 25ZM66.2624 28.2873V29.7928H60.0992V20.221H61.8722V28.2873H66.2624ZM71.153 30C70.487 30 69.9148 29.9079 69.4363 29.7238C68.9579 29.5304 68.5592 29.2634 68.2403 28.9227C67.9307 28.582 67.7009 28.1814 67.5508 27.721C67.4007 27.2606 67.3256 26.7541 67.3256 26.2017V20.221H69.1127V26.0359C69.1127 26.4687 69.1596 26.8416 69.2534 27.1547C69.3566 27.4586 69.4973 27.7072 69.6755 27.9006C69.8632 28.0939 70.0789 28.2366 70.3228 28.3287C70.5761 28.4208 70.8575 28.4668 71.1671 28.4668C71.4767 28.4668 71.7581 28.4208 72.0114 28.3287C72.2647 28.2366 72.4804 28.0939 72.6587 27.9006C72.8463 27.7072 72.987 27.4586 73.0808 27.1547C73.184 26.8416 73.2356 26.4687 73.2356 26.0359V20.221H75.0227V26.2017C75.0227 26.7541 74.9429 27.2606 74.7835 27.721C74.6334 28.1814 74.3988 28.582 74.0799 28.9227C73.7703 29.2634 73.3716 29.5304 72.8838 29.7238C72.396 29.9079 71.8191 30 71.153 30ZM79.4145 20.221C79.6209 20.5709 79.8507 20.9991 80.104 21.5055C80.3573 22.012 80.6153 22.546 80.8779 23.1077C81.1406 23.6602 81.3986 24.2265 81.6519 24.8066C81.9145 25.3775 82.1537 25.907 82.3695 26.395C82.5853 25.907 82.8198 25.3775 83.0731 24.8066C83.3264 24.2265 83.5843 23.6602 83.847 23.1077C84.1097 22.546 84.3676 22.012 84.6209 21.5055C84.8742 20.9991 85.104 20.5709 85.3104 20.221H86.9146C86.999 20.9208 87.0787 21.6667 87.1538 22.4586C87.2288 23.2413 87.2945 24.047 87.3508 24.8757C87.4164 25.6952 87.4727 26.5239 87.5196 27.3619C87.5759 28.1906 87.6228 29.0009 87.6603 29.7928H85.9155C85.878 28.6786 85.8311 27.5322 85.7748 26.3536C85.7279 25.175 85.6528 24.0331 85.5496 22.9282C85.4464 23.14 85.3245 23.3932 85.1838 23.6878C85.0431 23.9825 84.893 24.3048 84.7335 24.6547C84.574 24.9954 84.4098 25.3499 84.241 25.7182C84.0815 26.0866 83.922 26.4457 83.7626 26.7956C83.6125 27.1363 83.4718 27.4586 83.3404 27.7624C83.2091 28.0571 83.0965 28.3103 83.0027 28.5221H81.68C81.5862 28.3103 81.4736 28.0525 81.3423 27.7486C81.211 27.4448 81.0656 27.1225 80.9061 26.7818C80.756 26.4319 80.5965 26.0727 80.4277 25.7044C80.2682 25.3361 80.1087 24.9816 79.9492 24.6409C79.7897 24.3002 79.6397 23.9825 79.4989 23.6878C79.3582 23.384 79.2363 23.1308 79.1331 22.9282C79.0299 24.0331 78.9502 25.175 78.8939 26.3536C78.847 27.5322 78.8047 28.6786 78.7672 29.7928H77.0224C77.0599 29.0009 77.1021 28.1814 77.149 27.3343C77.2053 26.4871 77.2616 25.6492 77.3179 24.8204C77.3835 23.9825 77.4539 23.1722 77.5289 22.3895C77.604 21.6068 77.6837 20.884 77.7682 20.221H79.4145ZM92.6666 29.9033C92.1507 29.9033 91.63 29.8849 91.1047 29.8481C90.5794 29.8204 90.1197 29.756 89.7257 29.6547V20.3591C89.9321 20.3223 90.1525 20.2901 90.3871 20.2624C90.6216 20.2256 90.8608 20.198 91.1047 20.1796C91.3486 20.1611 91.5878 20.1473 91.8223 20.1381C92.0662 20.1289 92.2961 20.1243 92.5118 20.1243C93.1028 20.1243 93.6516 20.1703 94.1582 20.2624C94.6648 20.3453 95.101 20.488 95.4668 20.6906C95.8421 20.8932 96.1329 21.1602 96.3393 21.4917C96.5456 21.8232 96.6488 22.233 96.6488 22.721C96.6488 23.1722 96.5363 23.5589 96.3111 23.8812C96.0954 24.2035 95.7905 24.4613 95.3965 24.6547C95.9875 24.8481 96.4237 25.1335 96.7051 25.511C96.9865 25.8886 97.1273 26.3674 97.1273 26.9475C97.1273 27.9328 96.7614 28.674 96.0297 29.1713C95.298 29.6593 94.177 29.9033 92.6666 29.9033ZM91.4706 25.4834V28.3978C91.6676 28.4162 91.8786 28.43 92.1038 28.4392C92.3289 28.4484 92.5353 28.453 92.7229 28.453C93.0888 28.453 93.4265 28.43 93.7361 28.384C94.055 28.3379 94.327 28.2597 94.5522 28.1492C94.7867 28.0295 94.9696 27.8729 95.101 27.6796C95.2417 27.4862 95.312 27.2376 95.312 26.9337C95.312 26.3904 95.1104 26.0129 94.707 25.8011C94.3036 25.5893 93.7454 25.4834 93.0325 25.4834H91.4706ZM91.4706 24.116H92.7229C93.3983 24.116 93.9284 24.0239 94.313 23.8398C94.6976 23.6464 94.8899 23.3057 94.8899 22.8177C94.8899 22.3573 94.6882 22.0304 94.2848 21.837C93.8908 21.6436 93.3749 21.547 92.737 21.547C92.4649 21.547 92.221 21.5516 92.0053 21.5608C91.7989 21.57 91.6206 21.5838 91.4706 21.6022V24.116ZM102.731 30C102.065 30 101.493 29.9079 101.014 29.7238C100.536 29.5304 100.137 29.2634 99.818 28.9227C99.5084 28.582 99.2786 28.1814 99.1285 27.721C98.9784 27.2606 98.9034 26.7541 98.9034 26.2017V20.221H100.69V26.0359C100.69 26.4687 100.737 26.8416 100.831 27.1547C100.934 27.4586 101.075 27.7072 101.253 27.9006C101.441 28.0939 101.657 28.2366 101.901 28.3287C102.154 28.4208 102.435 28.4668 102.745 28.4668C103.054 28.4668 103.336 28.4208 103.589 28.3287C103.842 28.2366 104.058 28.0939 104.236 27.9006C104.424 27.7072 104.565 27.4586 104.659 27.1547C104.762 26.8416 104.813 26.4687 104.813 26.0359V20.221H106.6V26.2017C106.6 26.7541 106.521 27.2606 106.361 27.721C106.211 28.1814 105.977 28.582 105.658 28.9227C105.348 29.2634 104.949 29.5304 104.462 29.7238C103.974 29.9079 103.397 30 102.731 30ZM111.231 28.4945C111.869 28.4945 112.334 28.3886 112.625 28.1768C112.915 27.965 113.061 27.6657 113.061 27.279C113.061 27.0488 113.009 26.8508 112.906 26.6851C112.812 26.5193 112.671 26.372 112.484 26.2431C112.306 26.105 112.085 25.9807 111.822 25.8702C111.56 25.7505 111.26 25.6354 110.922 25.5249C110.584 25.4052 110.256 25.2762 109.937 25.1381C109.627 24.9908 109.351 24.8112 109.107 24.5994C108.872 24.3877 108.68 24.1344 108.53 23.8398C108.389 23.5451 108.319 23.1906 108.319 22.7762C108.319 21.9107 108.624 21.2339 109.233 20.7459C109.843 20.2486 110.673 20 111.724 20C112.334 20 112.873 20.0691 113.342 20.2072C113.821 20.3361 114.196 20.4788 114.468 20.6354L113.919 22.0442C113.6 21.8692 113.248 21.7357 112.864 21.6436C112.489 21.5516 112.099 21.5055 111.696 21.5055C111.217 21.5055 110.842 21.6022 110.57 21.7956C110.307 21.9889 110.176 22.2606 110.176 22.6105C110.176 22.8223 110.218 23.0064 110.303 23.163C110.397 23.3103 110.523 23.4438 110.683 23.5635C110.852 23.6832 111.044 23.7937 111.26 23.895C111.485 23.9963 111.729 24.093 111.991 24.1851C112.451 24.3508 112.859 24.5212 113.216 24.6961C113.581 24.8619 113.886 25.0645 114.13 25.3039C114.383 25.5341 114.576 25.8103 114.707 26.1326C114.838 26.4457 114.904 26.8278 114.904 27.279C114.904 28.1446 114.59 28.8168 113.961 29.2956C113.342 29.7652 112.432 30 111.231 30C110.828 30 110.458 29.9724 110.12 29.9171C109.792 29.8711 109.496 29.8112 109.233 29.7376C108.98 29.6639 108.76 29.5902 108.572 29.5166C108.384 29.4337 108.234 29.36 108.122 29.2956L108.642 27.8729C108.896 28.011 109.238 28.1492 109.67 28.2873C110.101 28.4254 110.622 28.4945 111.231 28.4945ZM122.439 20.1243C123.846 20.1243 124.92 20.3775 125.661 20.884C126.411 21.3904 126.787 22.1639 126.787 23.2044C126.787 24.5028 126.135 25.3821 124.831 25.8425C125.009 26.0543 125.211 26.3122 125.436 26.616C125.661 26.9199 125.891 27.2514 126.125 27.6105C126.36 27.9604 126.585 28.3241 126.801 28.7017C127.016 29.07 127.209 29.4337 127.378 29.7928H125.394C125.215 29.4613 125.023 29.1298 124.817 28.7983C124.61 28.4576 124.399 28.1308 124.183 27.8177C123.977 27.4954 123.771 27.1961 123.564 26.9199C123.358 26.6344 123.166 26.3812 122.987 26.1602C122.856 26.1694 122.743 26.174 122.65 26.174C122.556 26.174 122.467 26.174 122.382 26.174H121.524V29.7928H119.751V20.3591C120.182 20.267 120.642 20.2072 121.13 20.1796C121.618 20.1427 122.054 20.1243 122.439 20.1243ZM122.565 21.6298C122.19 21.6298 121.843 21.6436 121.524 21.6713V24.7652H122.298C122.729 24.7652 123.109 24.7422 123.438 24.6961C123.766 24.6501 124.038 24.5672 124.254 24.4475C124.479 24.3278 124.648 24.1667 124.76 23.9641C124.873 23.7615 124.929 23.5037 124.929 23.1906C124.929 22.8959 124.873 22.6473 124.76 22.4448C124.648 22.2422 124.484 22.081 124.268 21.9613C124.061 21.8416 123.813 21.7587 123.522 21.7127C123.231 21.6575 122.912 21.6298 122.565 21.6298ZM128.752 29.7928V20.221H135.014V21.6989H130.525V24.0608H134.521V25.511H130.525V28.3149H135.351V29.7928H128.752ZM143.675 29.7928C143.544 29.4153 143.408 29.0424 143.267 28.674C143.127 28.3057 142.991 27.9282 142.859 27.5414H138.75C138.619 27.9282 138.483 28.3103 138.342 28.6878C138.211 29.0562 138.08 29.4245 137.948 29.7928H136.105C136.471 28.7707 136.818 27.8269 137.146 26.9613C137.475 26.0958 137.794 25.2762 138.103 24.5028C138.422 23.7293 138.736 22.9926 139.046 22.2928C139.355 21.593 139.674 20.9024 140.003 20.221H141.677C142.006 20.9024 142.325 21.593 142.634 22.2928C142.944 22.9926 143.253 23.7293 143.563 24.5028C143.882 25.2762 144.205 26.0958 144.534 26.9613C144.871 27.8269 145.223 28.7707 145.589 29.7928H143.675ZM140.805 22.0718C140.589 22.5599 140.34 23.1538 140.059 23.8536C139.787 24.5534 139.501 25.3131 139.201 26.1326H142.409C142.109 25.3131 141.818 24.5488 141.537 23.8398C141.255 23.1308 141.011 22.5414 140.805 22.0718ZM152.985 28.2873V29.7928H146.822V20.221H148.595V28.2873H152.985ZM159.693 20.221V21.7265H156.695V29.7928H154.908V21.7265H151.911V20.221H159.693ZM164.694 24.4613C165.116 23.7707 165.529 23.0709 165.932 22.3619C166.336 21.6529 166.702 20.9392 167.03 20.221H169C168.475 21.1971 167.926 22.1685 167.354 23.1354C166.791 24.093 166.186 25.0599 165.538 26.0359V29.7928H163.765V26.0635C163.118 25.0783 162.508 24.1022 161.936 23.1354C161.364 22.1685 160.815 21.1971 160.29 20.221H162.372C162.701 20.9392 163.062 21.6529 163.456 22.3619C163.85 23.0709 164.263 23.7707 164.694 24.4613Z" fill="#2C3A55"/>
</svg>
