<?xml version="1.0" encoding="utf-8"?><svg viewBox="0 0 100 100" xmlns="http://www.w3.org/2000/svg" xmlns:xlink="http://www.w3.org/1999/xlink"><style>:root>svg{display:none}:root>svg:target{display:block}</style><svg fill="none" viewBox="0 0 14 10" id="icon-arrow-more" xmlns="http://www.w3.org/2000/svg"><path fill-rule="evenodd" clip-rule="evenodd" d="M0 5a.5.5 0 01.5-.5h11.793L9.146 1.354a.5.5 0 11.708-.708l4 4a.5.5 0 010 .708l-4 4a.5.5 0 11-.708-.708L12.293 5.5H.5A.5.5 0 010 5z" fill="currentColor"/></svg><svg fill="none" viewBox="0 0 25 25" id="icon-caret" xmlns="http://www.w3.org/2000/svg"><path fill-rule="evenodd" clip-rule="evenodd" d="M2.572 7.26a.781.781 0 011.106 0l8.822 8.823 8.822-8.824a.782.782 0 111.106 1.107l-9.375 9.375a.781.781 0 01-1.106 0L2.572 8.366a.781.781 0 010-1.107z" fill="#000"/><path fill-rule="evenodd" clip-rule="evenodd" d="M2.572 7.26a.781.781 0 011.106 0l8.822 8.823 8.822-8.824a.782.782 0 111.106 1.107l-9.375 9.375a.781.781 0 01-1.106 0L2.572 8.366a.781.781 0 010-1.107z" fill="#00A3FF"/></svg><svg fill="none" viewBox="0 0 35 35" id="icon-close" xmlns="http://www.w3.org/2000/svg"><path d="M4.694 6.243a1.095 1.095 0 111.55-1.549L17.5 15.954l11.257-11.26a1.095 1.095 0 111.549 1.549L19.046 17.5l11.26 11.257a1.096 1.096 0 01-1.55 1.548L17.5 19.047 6.243 30.305a1.094 1.094 0 11-1.549-1.548L15.954 17.5 4.694 6.243z" fill="currentColor"/></svg><svg fill="none" viewBox="0 0 24 24" id="icon-email" xmlns="http://www.w3.org/2000/svg"><path d="M0 6a3 3 0 013-3h18a3 3 0 013 3v12a3 3 0 01-3 3H3a3 3 0 01-3-3V6zm3-1.5A1.5 1.5 0 001.5 6v.325l10.5 6.3 10.5-6.3V6A1.5 1.5 0 0021 4.5H3zm19.5 3.575l-7.062 4.237 7.062 4.345V8.075zm-.051 10.314l-8.46-5.207L12 14.374l-1.989-1.192-8.46 5.205A1.5 1.5 0 003 19.5h18a1.5 1.5 0 001.449-1.111zM1.5 16.657l7.062-4.345L1.5 8.075v8.582z" fill="currentColor"/></svg><svg fill="none" viewBox="0 0 20 20" id="icon-facebook" xmlns="http://www.w3.org/2000/svg"><g clip-path="url(#eclip0_50_1026)"><path d="M20 10.061C20 4.504 15.523 0 10 0 4.475 0-.003 4.504-.003 10.062c0 5.022 3.658 9.184 8.438 9.94V12.97H5.897v-2.908h2.54V7.845c0-2.521 1.494-3.914 3.778-3.914 1.095 0 2.239.196 2.239.196v2.475h-1.261c-1.242 0-1.63.777-1.63 1.573v1.887h2.773l-.442 2.908h-2.332V20c4.78-.755 8.438-4.918 8.438-9.939z" fill="currentColor"/></g><defs><clipPath id="eclip0_50_1026"><path fill="currentColor" d="M0 0h20v20H0z"/></clipPath></defs></svg><svg fill="none" viewBox="0 0 100 100" id="icon-hit-01" xmlns="http://www.w3.org/2000/svg"><path d="M73.388 64.65a40.625 40.625 0 10-8.732 8.737h-.006c.188.25.388.488.613.719l24.062 24.062a6.253 6.253 0 0010.673-4.416 6.252 6.252 0 00-1.83-4.421L74.107 65.268a6.302 6.302 0 00-.718-.625v.007zM75 40.625a34.375 34.375 0 11-68.75 0 34.375 34.375 0 0168.75 0z" fill="currentColor"/></svg><svg fill="none" viewBox="0 0 100 100" id="icon-hit-02" xmlns="http://www.w3.org/2000/svg"><path d="M68.75 40.625a3.125 3.125 0 013.125-3.125h6.25a3.125 3.125 0 013.125 3.125v6.25A3.125 3.125 0 0178.125 50h-6.25a3.125 3.125 0 01-3.125-3.125v-6.25zm-18.75 0a3.125 3.125 0 013.125-3.125h6.25a3.125 3.125 0 013.125 3.125v6.25A3.125 3.125 0 0159.375 50h-6.25A3.125 3.125 0 0150 46.875v-6.25zm-31.25 18.75a3.125 3.125 0 013.125-3.125h6.25a3.125 3.125 0 013.125 3.125v6.25a3.125 3.125 0 01-3.125 3.125h-6.25a3.125 3.125 0 01-3.125-3.125v-6.25zm18.75 0a3.125 3.125 0 013.125-3.125h6.25A3.125 3.125 0 0150 59.375v6.25a3.125 3.125 0 01-3.125 3.125h-6.25a3.125 3.125 0 01-3.125-3.125v-6.25z" fill="currentColor"/><path d="M21.875 0A3.125 3.125 0 0125 3.125V6.25h50V3.125a3.125 3.125 0 116.25 0V6.25h6.25a12.5 12.5 0 0112.5 12.5V87.5A12.5 12.5 0 0187.5 100h-75A12.5 12.5 0 010 87.5V18.75a12.5 12.5 0 0112.5-12.5h6.25V3.125A3.125 3.125 0 0121.875 0zM6.25 25v62.5a6.25 6.25 0 006.25 6.25h75a6.25 6.25 0 006.25-6.25V25H6.25z" fill="currentColor"/></svg><svg fill="none" viewBox="0 0 100 100" id="icon-hit-03" xmlns="http://www.w3.org/2000/svg"><path d="M84.013 15.988a3.905 3.905 0 010 5.524l-62.5 62.5a3.909 3.909 0 01-6.372-1.267 3.907 3.907 0 01.847-4.258l62.5-62.5a3.905 3.905 0 015.525 0zM28.125 37.5a9.375 9.375 0 110-18.75 9.375 9.375 0 010 18.75zm0 6.25a15.625 15.625 0 100-31.25 15.625 15.625 0 000 31.25zm43.75 37.5a9.375 9.375 0 110-18.75 9.375 9.375 0 010 18.75zm0 6.25a15.625 15.625 0 100-31.25 15.625 15.625 0 000 31.25z" fill="currentColor"/></svg><svg fill="none" viewBox="0 0 100 100" id="icon-hit-04" xmlns="http://www.w3.org/2000/svg"><path fill-rule="evenodd" clip-rule="evenodd" d="M50 12.5a3.125 3.125 0 013.125 3.125v31.25h31.25a3.125 3.125 0 110 6.25h-31.25v31.25a3.125 3.125 0 11-6.25 0v-31.25h-31.25a3.125 3.125 0 110-6.25h31.25v-31.25A3.125 3.125 0 0150 12.5z" fill="currentColor"/></svg><svg fill="none" viewBox="0 0 20 20" id="icon-instagram" xmlns="http://www.w3.org/2000/svg"><path d="M10 0C7.286 0 6.945.013 5.879.06 4.813.11 4.086.278 3.45.525a4.896 4.896 0 00-1.771 1.154A4.909 4.909 0 00.525 3.45C.278 4.085.109 4.812.06 5.875.012 6.944 0 7.284 0 10.001c0 2.715.013 3.055.06 4.122.05 1.065.218 1.79.465 2.427a4.91 4.91 0 001.154 1.771 4.88 4.88 0 001.77 1.154c.637.247 1.362.416 2.427.465 1.068.047 1.408.06 4.124.06 2.716 0 3.055-.012 4.123-.06 1.063-.05 1.792-.218 2.428-.465a4.893 4.893 0 001.77-1.154 4.91 4.91 0 001.154-1.771c.246-.636.415-1.363.465-2.428.047-1.066.06-1.406.06-4.122s-.012-3.056-.06-4.124c-.05-1.064-.219-1.791-.465-2.426a4.907 4.907 0 00-1.154-1.771A4.888 4.888 0 0016.55.525C15.912.278 15.185.109 14.121.06 13.054.012 12.715 0 9.998 0H10 10zm-.896 1.802H10c2.67 0 2.987.01 4.04.058.975.044 1.505.207 1.858.344.466.181.8.398 1.15.748.35.35.566.683.747 1.15.138.352.3.882.344 1.857.049 1.054.059 1.37.059 4.039 0 2.668-.01 2.986-.059 4.04-.044.974-.207 1.503-.344 1.856a3.09 3.09 0 01-.748 1.149c-.35.35-.683.566-1.15.747-.35.137-.88.3-1.857.345-1.053.047-1.37.059-4.04.059s-2.987-.011-4.041-.059c-.975-.045-1.504-.208-1.856-.345a3.097 3.097 0 01-1.15-.747 3.1 3.1 0 01-.75-1.15c-.137-.352-.3-.882-.344-1.857-.048-1.053-.058-1.37-.058-4.041 0-2.67.01-2.985.058-4.039.045-.975.207-1.505.345-1.857.181-.467.399-.8.749-1.15a3.09 3.09 0 011.15-.748c.352-.137.881-.3 1.856-.345.923-.042 1.28-.055 3.144-.056v.002zm6.235 1.66a1.2 1.2 0 100 2.401 1.2 1.2 0 000-2.4zM10 4.865a5.136 5.136 0 10-.16 10.271 5.136 5.136 0 00.16-10.271zm0 1.801a3.334 3.334 0 110 6.668 3.334 3.334 0 010-6.668z" fill="currentColor"/></svg><svg fill="none" viewBox="0 0 40 40" id="icon-location" xmlns="http://www.w3.org/2000/svg"><g clip-path="url(#kclip0_71_30)"><path d="M30.415 22.35c-1.31 2.655-3.085 5.3-4.9 7.675A78.759 78.759 0 0120 36.45a78.703 78.703 0 01-5.515-6.425c-1.815-2.375-3.59-5.02-4.9-7.675C8.26 19.667 7.5 17.155 7.5 15a12.5 12.5 0 1125 0c0 2.155-.762 4.668-2.085 7.35zM20 40s15-14.215 15-25a15 15 0 00-30 0c0 10.785 15 25 15 25z" fill="#000"/><path d="M30.415 22.35c-1.31 2.655-3.085 5.3-4.9 7.675A78.759 78.759 0 0120 36.45a78.703 78.703 0 01-5.515-6.425c-1.815-2.375-3.59-5.02-4.9-7.675C8.26 19.667 7.5 17.155 7.5 15a12.5 12.5 0 1125 0c0 2.155-.762 4.668-2.085 7.35zM20 40s15-14.215 15-25a15 15 0 00-30 0c0 10.785 15 25 15 25z" fill="#00A3FF"/><path d="M30.415 22.35c-1.31 2.655-3.085 5.3-4.9 7.675A78.759 78.759 0 0120 36.45a78.703 78.703 0 01-5.515-6.425c-1.815-2.375-3.59-5.02-4.9-7.675C8.26 19.667 7.5 17.155 7.5 15a12.5 12.5 0 1125 0c0 2.155-.762 4.668-2.085 7.35zM20 40s15-14.215 15-25a15 15 0 00-30 0c0 10.785 15 25 15 25z" fill="#fff"/><path d="M20 20a5 5 0 110-10 5 5 0 010 10zm0 2.5a7.5 7.5 0 100-15 7.5 7.5 0 000 15z" fill="#000"/><path d="M20 20a5 5 0 110-10 5 5 0 010 10zm0 2.5a7.5 7.5 0 100-15 7.5 7.5 0 000 15z" fill="#00A3FF"/><path d="M20 20a5 5 0 110-10 5 5 0 010 10zm0 2.5a7.5 7.5 0 100-15 7.5 7.5 0 000 15z" fill="#fff"/></g><defs><clipPath id="kclip0_71_30"><path fill="#fff" d="M0 0h40v40H0z"/></clipPath></defs></svg><svg fill="none" viewBox="0 0 20 20" id="icon-mark" xmlns="http://www.w3.org/2000/svg"><path d="M17.317 4.558a.625.625 0 010 .885l-8.75 8.75a.625.625 0 01-.885 0L3.308 9.818a.626.626 0 11.885-.885l3.933 3.933 8.308-8.308a.625.625 0 01.884 0z" fill="currentColor"/></svg><svg fill="none" viewBox="0 0 24 24" id="icon-phone" xmlns="http://www.w3.org/2000/svg"><g clip-path="url(#mclip0_50_1020)"><path d="M5.481 1.992a1.017 1.017 0 00-1.522-.094L2.408 3.45c-.725.726-.992 1.754-.675 2.655a26.352 26.352 0 006.252 9.912 26.355 26.355 0 009.912 6.252c.901.317 1.929.05 2.655-.675l1.55-1.55a1.017 1.017 0 00-.094-1.523l-3.46-2.691a1.017 1.017 0 00-.87-.183l-3.285.82a2.617 2.617 0 01-2.486-.688l-3.684-3.686a2.617 2.617 0 01-.69-2.485l.822-3.285a1.017 1.017 0 00-.183-.87l-2.69-3.46zM2.826.767a2.617 2.617 0 013.918.244l2.691 3.46c.494.634.668 1.46.473 2.24l-.82 3.285a1.017 1.017 0 00.266.965l3.686 3.685a1.018 1.018 0 00.966.267l3.283-.82a2.619 2.619 0 012.241.472l3.46 2.691a2.617 2.617 0 01.244 3.917l-1.551 1.55c-1.11 1.11-2.77 1.598-4.316 1.054a27.95 27.95 0 01-10.515-6.63A27.951 27.951 0 01.222 6.633C-.32 5.088.167 3.428 1.277 2.318L2.827.767z" fill="currentColor"/></g><defs><clipPath id="mclip0_50_1020"><path fill="currentColor" d="M0 0h24v24H0z"/></clipPath></defs></svg><svg fill="none" viewBox="0 0 24 21" id="icon-scroll" xmlns="http://www.w3.org/2000/svg"><path opacity=".55" fill-rule="evenodd" clip-rule="evenodd" d="M.271 7.915a.922.922 0 01.654-.28.897.897 0 01.653.28L12 18.695l10.422-10.78a.909.909 0 01.654-.28c.245 0 .48.101.653.28.174.18.271.423.271.676a.972.972 0 01-.27.676L12.653 20.72A.921.921 0 0112 21a.897.897 0 01-.653-.28L.27 9.267A.957.957 0 010 8.59a.983.983 0 01.271-.676z" fill="#fff"/><path fill-rule="evenodd" clip-rule="evenodd" d="M.271.28A.922.922 0 01.925 0a.897.897 0 01.653.28L12 11.06 22.422.28a.923.923 0 01.654-.28.898.898 0 01.653.28.96.96 0 01.271.676.985.985 0 01-.27.676L12.653 13.085a.921.921 0 01-.654.28.897.897 0 01-.653-.28L.27 1.632A.957.957 0 010 .956.983.983 0 01.271.28z" fill="#fff"/></svg><svg fill="none" viewBox="0 0 100 100" id="icon-success" xmlns="http://www.w3.org/2000/svg"><circle cx="50" cy="50" r="48" stroke="#000" stroke-width="4"/><circle cx="50" cy="50" r="48" stroke="#fff" stroke-width="4"/><path d="M78.134 28.608a2.496 2.496 0 010 3.488L44.192 66.584a2.39 2.39 0 01-3.433 0L23.79 49.34a2.487 2.487 0 01-.712-1.744c0-.654.256-1.281.711-1.744a2.408 2.408 0 011.717-.722c.643 0 1.26.26 1.716.722l15.255 15.505L74.7 28.608a2.391 2.391 0 013.433 0z" fill="#000"/><path d="M78.134 28.608a2.496 2.496 0 010 3.488L44.192 66.584a2.39 2.39 0 01-3.433 0L23.79 49.34a2.487 2.487 0 01-.712-1.744c0-.654.256-1.281.711-1.744a2.408 2.408 0 011.717-.722c.643 0 1.26.26 1.716.722l15.255 15.505L74.7 28.608a2.391 2.391 0 013.433 0z" fill="#fff"/></svg><svg fill="none" viewBox="0 0 20 20" id="icon-twitter" xmlns="http://www.w3.org/2000/svg"><path d="M6.282 18.75c7.548 0 11.677-6.254 11.677-11.667 0-.175 0-.353-.008-.528A8.357 8.357 0 0020 4.428c-.75.33-1.547.549-2.361.647a4.126 4.126 0 001.809-2.271 8.166 8.166 0 01-2.61.991 4.107 4.107 0 00-6.994 3.743A11.656 11.656 0 011.385 3.25 4.111 4.111 0 002.658 8.73 4.154 4.154 0 01.8 8.219v.056a4.11 4.11 0 003.29 4.022 4.006 4.006 0 01-1.081.144c-.258.001-.515-.023-.768-.071a4.104 4.104 0 003.834 2.846 8.235 8.235 0 01-5.1 1.759A7.903 7.903 0 010 16.919a11.68 11.68 0 006.282 1.831z" fill="currentColor"/></svg></svg>